<svg width="13" height="21" viewBox="0 0 13 21" fill="none" xmlns="http://www.w3.org/2000/svg">
<path d="M8 21H4C3.73478 21 3.48043 20.8946 3.29289 20.7071C3.10536 20.5195 3 20.2652 3 20V13.8H1C0.734784 13.8 0.48043 13.6946 0.292893 13.5071C0.105357 13.3195 0 13.0652 0 12.8V9.19995C0 8.93474 0.105357 8.68038 0.292893 8.49285C0.48043 8.30531 0.734784 8.19995 1 8.19995H3V6.49995C3.0701 4.97631 3.74062 3.5424 4.86497 2.51174C5.98932 1.48109 7.47602 0.937544 9 0.999955H12C12.2652 0.999955 12.5196 1.10531 12.7071 1.29285C12.8946 1.48038 13 1.73474 13 1.99995V5.59995C13 5.86517 12.8946 6.11953 12.7071 6.30706C12.5196 6.4946 12.2652 6.59995 12 6.59995H9V8.19995H12C12.1544 8.19878 12.307 8.23339 12.4458 8.30105C12.5846 8.36871 12.7058 8.4676 12.8 8.58995C12.8931 8.71415 12.9561 8.85833 12.9839 9.01107C13.0116 9.16381 13.0035 9.32092 12.96 9.46995L11.96 13.07C11.8995 13.2863 11.768 13.4759 11.5866 13.6083C11.4052 13.7408 11.1844 13.8083 10.96 13.8H9V20C9 20.2652 8.89464 20.5195 8.70711 20.7071C8.51957 20.8946 8.26522 21 8 21ZM5 19H7V12.8C7 12.5347 7.10536 12.2804 7.29289 12.0928C7.48043 11.9053 7.73478 11.8 8 11.8H10.24L10.68 10.2H8C7.73478 10.2 7.48043 10.0946 7.29289 9.90706C7.10536 9.71952 7 9.46517 7 9.19995V6.49995C7.02568 5.98704 7.24767 5.50366 7.62 5.14995C7.99233 4.79624 8.48645 4.59931 9 4.59995H11V2.99995H9C8.00681 2.93944 7.02982 3.27299 6.28098 3.92822C5.53214 4.58345 5.07186 5.50752 5 6.49995V9.19995C5 9.46517 4.89464 9.71952 4.70711 9.90706C4.51957 10.0946 4.26522 10.2 4 10.2H2V11.8H4C4.26522 11.8 4.51957 11.9053 4.70711 12.0928C4.89464 12.2804 5 12.5347 5 12.8V19Z" fill="white"/>
</svg>
