<svg width="22" height="22" viewBox="0 0 22 22" fill="none" xmlns="http://www.w3.org/2000/svg">
<path d="M16.1479 7.99912C15.2528 7.99896 14.3715 8.22056 13.5829 8.64412C13.5109 8.45445 13.3829 8.29118 13.2159 8.17598C13.0489 8.06077 12.8508 7.99909 12.6479 7.99912H8.64794C8.38272 7.99912 8.12837 8.10447 7.94083 8.29201C7.75329 8.47955 7.64794 8.7339 7.64794 8.99912V20.9991C7.64794 21.2643 7.75329 21.5187 7.94083 21.7062C8.12837 21.8938 8.38272 21.9991 8.64794 21.9991H12.6479C12.9132 21.9991 13.1675 21.8938 13.355 21.7062C13.5426 21.5187 13.6479 21.2643 13.6479 20.9991V15.4991C13.6479 15.2339 13.7533 14.9795 13.9408 14.792C14.1284 14.6045 14.3827 14.4991 14.6479 14.4991C14.9132 14.4991 15.1675 14.6045 15.355 14.792C15.5426 14.9795 15.6479 15.2339 15.6479 15.4991V20.9991C15.6479 21.2643 15.7533 21.5187 15.9408 21.7062C16.1284 21.8938 16.3827 21.9991 16.6479 21.9991H20.6479C20.9132 21.9991 21.1675 21.8938 21.355 21.7062C21.5426 21.5187 21.6479 21.2643 21.6479 20.9991V13.4991C21.6461 12.041 21.066 10.6431 20.035 9.61208C19.0039 8.58103 17.6061 8.00097 16.1479 7.99912ZM19.6479 19.9991H17.6479V15.4991C17.6479 14.7035 17.3319 13.9404 16.7693 13.3778C16.2066 12.8152 15.4436 12.4991 14.6479 12.4991C13.8523 12.4991 13.0892 12.8152 12.5266 13.3778C11.964 13.9404 11.6479 14.7035 11.6479 15.4991V19.9991H9.64794V9.99912H11.6479V10.7021C11.6478 10.9094 11.7122 11.1116 11.832 11.2807C11.9518 11.4498 12.1212 11.5775 12.3168 11.6462C12.5124 11.7148 12.7245 11.721 12.9237 11.6638C13.1229 11.6067 13.2995 11.489 13.4289 11.3271C13.8779 10.7572 14.4935 10.3417 15.19 10.1387C15.8865 9.93559 16.629 9.95506 17.3139 10.1944C17.9987 10.4337 18.5918 10.8809 19.0102 11.4735C19.4287 12.0661 19.6516 12.7746 19.6479 13.5001V19.9991ZM5.64794 7.99912H1.64794C1.38272 7.99912 1.12837 8.10447 0.940829 8.29201C0.753293 8.47955 0.647936 8.7339 0.647936 8.99912V20.9991C0.647936 21.2643 0.753293 21.5187 0.940829 21.7062C1.12837 21.8938 1.38272 21.9991 1.64794 21.9991H5.64794C5.91315 21.9991 6.16751 21.8938 6.35504 21.7062C6.54258 21.5187 6.64794 21.2643 6.64794 20.9991V8.99912C6.64794 8.7339 6.54258 8.47955 6.35504 8.29201C6.16751 8.10447 5.91315 7.99912 5.64794 7.99912ZM4.64794 19.9991H2.64794V9.99912H4.64794V19.9991ZM3.66294 0.542117C3.22503 0.515436 2.78627 0.578162 2.37338 0.726475C1.96049 0.874789 1.5821 1.10559 1.26126 1.40481C0.940424 1.70404 0.683842 2.06544 0.507142 2.467C0.330442 2.86857 0.237321 3.30189 0.233448 3.74059C0.229575 4.1793 0.315032 4.6142 0.484616 5.01882C0.654199 5.42344 0.904361 5.78931 1.21987 6.09416C1.53538 6.399 1.90963 6.63644 2.31983 6.79202C2.73004 6.9476 3.16762 7.01806 3.60594 6.99912H3.63394C4.07209 7.02415 4.51076 6.95971 4.9232 6.80973C5.33565 6.65974 5.71324 6.42736 6.03298 6.12673C6.35271 5.8261 6.60788 5.46351 6.78296 5.06108C6.95803 4.65864 7.04933 4.22477 7.0513 3.7859C7.05327 3.34703 6.96587 2.91236 6.79442 2.50837C6.62297 2.10437 6.37106 1.73951 6.05404 1.43602C5.73702 1.13253 5.36153 0.896761 4.95045 0.74308C4.53937 0.589398 4.1013 0.521022 3.66294 0.542117ZM3.63394 4.99912H3.60594C3.43298 5.02023 3.25751 5.00412 3.09129 4.95185C2.92507 4.89959 2.77195 4.81238 2.64221 4.69608C2.51246 4.57978 2.40908 4.43708 2.33901 4.27755C2.26894 4.11802 2.2338 3.94534 2.23594 3.77112C2.23594 3.02412 2.79594 2.54212 3.66294 2.54212C3.83755 2.51914 4.01505 2.5338 4.18353 2.58512C4.352 2.63644 4.50754 2.72323 4.63969 2.83965C4.77183 2.95607 4.87753 3.09943 4.94967 3.26009C5.02181 3.42076 5.05873 3.595 5.05794 3.77112C5.05794 4.51712 4.49794 4.99912 3.63294 4.99912H3.63394Z" fill="white"/>
</svg>
