<svg width="74" height="74" viewBox="0 0 74 74" fill="none" xmlns="http://www.w3.org/2000/svg">
<path d="M64.9118 3.49613C65.59 1.03798 67.9038 -0.456373 70.1911 0.158056C72.465 0.772628 73.848 3.26389 73.2762 5.72103L72.1192 10.7199C70.6565 17.0233 66.7735 22.1268 61.7071 25.0083V68.8326C61.7071 71.37 59.8055 73.42 57.4518 73.42C55.098 73.42 53.1965 71.37 53.1965 68.8326V50.4829H51.0688V68.8326C51.0688 71.37 49.1672 73.42 46.8135 73.42C44.4598 73.42 42.5582 71.37 42.5582 68.8326V25.0083C37.4917 22.1268 33.6088 17.0233 32.146 10.7199L30.8694 5.72103C30.4173 3.26389 31.8003 0.772628 34.0742 0.158056C36.3614 -0.456229 38.6752 1.03798 39.2337 3.49613L40.4039 8.49356C41.747 14.2981 46.5874 18.2418 52.1326 18.2418C57.6778 18.2418 62.5182 14.2981 63.8613 8.49356L64.9118 3.49613ZM45.7497 6.77327C45.7497 3.1019 48.6087 0.02115 52.1326 0.02115C55.6565 0.02115 58.5156 3.1019 58.5156 6.77327C58.5156 10.7027 55.6565 13.6544 52.1326 13.6544C48.6087 13.6544 45.7497 10.7027 45.7497 6.77327ZM3.19796 6.90229C3.19796 3.1019 6.05567 0.02115 9.58092 0.02115C13.1035 0.02115 15.9625 3.1019 15.9625 6.90229C15.9625 10.7027 13.1035 13.7834 9.58092 13.7834C6.05567 13.7834 3.19796 10.7027 3.19796 6.90229ZM12.8642 18.3709C16.5078 18.3709 19.8987 20.3779 21.8402 23.6894L26.8136 32.1332H30.8561C33.2098 32.1332 35.1114 34.1832 35.1114 36.7206C35.1114 39.258 33.2098 41.308 30.8561 41.308H24.4732C23.0104 41.308 21.6673 40.5052 20.7631 39.172L19.154 36.2475V68.8326C19.154 71.37 17.2524 73.42 14.8987 73.42C12.545 73.42 10.6434 71.37 10.6434 68.8326V50.4829H8.51576V68.8326C8.51576 71.37 6.61152 73.42 4.26046 73.42C1.91074 73.42 0.00582238 71.37 0.00582238 68.8326V41.394L0.00515747 41.179V27.4167C0.00515747 22.4852 3.81498 18.2418 8.51576 18.2418L12.8642 18.3709Z" fill="#558EE1"/>
</svg>
