<svg width="122" height="24" viewBox="0 0 122 24" fill="none" xmlns="http://www.w3.org/2000/svg">
<path fill-rule="evenodd" clip-rule="evenodd" d="M96.2959 22.1619C96.3045 22.1724 96.3131 22.1828 96.3217 22.1933C96.7232 22.663 97.2535 23.0645 97.9126 23.3979C98.5717 23.7312 99.4013 23.8979 100.401 23.8979C101.772 23.8979 103 23.5456 104.083 22.841C105.166 22.1365 106.022 21.1138 106.651 19.7729C107.28 18.432 107.594 16.8032 107.594 14.8865C107.594 12.9471 107.272 11.3107 106.629 9.97741C105.992 8.6365 105.129 7.62514 104.038 6.94332C102.954 6.25392 101.738 5.90923 100.39 5.90923C99.3672 5.90923 98.5263 6.08347 97.8672 6.43195C97.2081 6.77286 96.6853 7.18574 96.299 7.67059C96.298 7.67186 96.2969 7.67313 96.2959 7.6744V10.6885C96.5074 10.4161 96.7471 10.1791 97.0149 9.97741C97.6285 9.51529 98.3747 9.28423 99.2535 9.28423C100.17 9.28423 100.935 9.52286 101.549 10.0001C102.163 10.4774 102.625 11.1365 102.935 11.9774C103.246 12.8183 103.401 13.7804 103.401 14.8638C103.401 15.9547 103.242 16.9282 102.924 17.7842C102.613 18.6327 102.151 19.3032 101.538 19.7956C100.924 20.2804 100.163 20.5229 99.2535 20.5229C98.3823 20.5229 97.6399 20.288 97.0263 19.8183C96.7547 19.6044 96.5112 19.3533 96.2959 19.0648V22.1619ZM94.2959 0.318317H91.1172V23.591H94.2959V0.318317ZM51.2959 23.591H54.2873C56.6509 23.591 58.6736 23.1251 60.3555 22.1933C62.0449 21.2615 63.3365 19.9244 64.2305 18.182C65.132 16.4395 65.5827 14.3562 65.5827 11.932C65.5827 9.51529 65.1358 7.43953 64.2418 5.70468C63.3479 3.96983 62.0676 2.64029 60.4009 1.71605C58.7418 0.784226 56.757 0.318317 54.4464 0.318317H51.2959V3.96604H54.2077C55.7835 3.96604 57.1017 4.2615 58.1623 4.85241C59.2305 5.43574 60.0373 6.31832 60.5827 7.50013C61.1282 8.67438 61.4009 10.1517 61.4009 11.932C61.4009 13.7123 61.1282 15.1971 60.5827 16.3865C60.0373 17.5683 59.2229 18.4585 58.1395 19.057C57.0562 19.6479 55.7039 19.9433 54.0827 19.9433H51.2959V23.591ZM49.2959 0.318317H46.4009V23.591H49.2959V0.318317ZM37.5158 22.807C36.572 23.3732 35.4987 23.7257 34.2959 23.8644V20.4724C34.7157 20.3462 35.0921 20.1471 35.4249 19.8751C36.0461 19.36 36.5082 18.6706 36.8113 17.807C37.1219 16.9433 37.2772 15.9812 37.2772 14.9206C37.2772 13.8524 37.1219 12.8865 36.8113 12.0229C36.5082 11.1517 36.0461 10.4585 35.4249 9.94332C35.0921 9.66731 34.7157 9.46524 34.2959 9.33711V5.97676C35.4987 6.11549 36.572 6.46798 37.5158 7.03423C38.7658 7.78423 39.7317 8.83726 40.4135 10.1933C41.1029 11.5494 41.4476 13.1289 41.4476 14.932C41.4476 16.735 41.1029 18.3107 40.4135 19.6592C39.7317 21.0077 38.7658 22.057 37.5158 22.807ZM30.7431 9.94332C31.1829 9.58301 31.7005 9.34871 32.2959 9.24041V5.9371C30.92 6.03658 29.7054 6.40229 28.6522 7.03423C27.4022 7.78423 26.4325 8.83726 25.7431 10.1933C25.0613 11.5494 24.7203 13.1289 24.7203 14.932C24.7203 16.735 25.0613 18.3107 25.7431 19.6592C26.4325 21.0077 27.4022 22.057 28.6522 22.807C29.7054 23.4389 30.92 23.8046 32.2959 23.9041V20.5677C31.7005 20.461 31.1829 20.2301 30.7431 19.8751C30.1219 19.36 29.6559 18.6706 29.3453 17.807C29.0423 16.9433 28.8908 15.9812 28.8908 14.9206C28.8908 13.8524 29.0423 12.8865 29.3453 12.0229C29.6559 11.1517 30.1219 10.4585 30.7431 9.94332ZM11.7959 23.861C12.7431 23.7784 13.6255 23.59 14.4432 23.2956C15.5795 22.8789 16.572 22.3032 17.4205 21.5683C18.2689 20.8259 18.9545 19.9698 19.4773 19.0001C20.0076 18.0304 20.3523 16.9926 20.5114 15.8865L16.2614 15.8638C16.1326 16.5456 15.8977 17.1517 15.5568 17.682C15.2235 18.2123 14.8106 18.6592 14.3182 19.0229C13.8333 19.3865 13.2841 19.663 12.6705 19.8524C12.3888 19.9369 12.0972 20.0018 11.7959 20.047V23.861ZM9.7959 3.84516C8.90475 3.96532 8.094 4.26319 7.36364 4.73877C6.38636 5.36756 5.62121 6.2918 5.06818 7.5115C4.51515 8.72362 4.23864 10.2047 4.23864 11.9547C4.23864 13.735 4.51515 15.235 5.06818 16.4547C5.62879 17.6668 6.39394 18.5835 7.36364 19.2047C8.09574 19.6644 8.90649 19.9519 9.7959 20.0672V23.8802C8.09646 23.7643 6.55844 23.3005 5.18182 22.4888C3.57576 21.5418 2.31061 20.1744 1.38636 18.3865C0.462121 16.5986 0 14.4547 0 11.9547C0 9.44711 0.465909 7.30317 1.39773 5.52286C2.32955 3.73498 3.59848 2.36756 5.20455 1.42059C6.57952 0.609871 8.10998 0.146188 9.7959 0.029541V3.84516ZM11.7959 3.86376C12.114 3.91293 12.4206 3.9849 12.7159 4.07968C13.3371 4.26907 13.8902 4.55316 14.375 4.93195C14.8598 5.31074 15.2652 5.77286 15.5909 6.31832C15.9167 6.8562 16.1402 7.47362 16.2614 8.17059H20.5114C20.3371 6.87514 19.9659 5.72362 19.3977 4.71604C18.8371 3.70089 18.1212 2.84483 17.25 2.14786C16.3788 1.44332 15.3864 0.909226 14.2727 0.545589C13.4918 0.290599 12.6662 0.125011 11.7959 0.0488261V3.86376ZM73.8798 22.841C75.1525 23.5683 76.6639 23.932 78.4139 23.932C79.7699 23.932 80.9745 23.7274 82.0275 23.3183C83.0805 22.9016 83.9442 22.3183 84.6184 21.5683C85.3002 20.8107 85.7623 19.9244 86.0048 18.9092L82.1639 18.4774C81.982 18.9698 81.7131 19.3827 81.357 19.716C81.001 20.0494 80.5805 20.3032 80.0957 20.4774C79.6108 20.6441 79.0692 20.7274 78.4707 20.7274C77.5767 20.7274 76.7964 20.538 76.1298 20.1592C75.4631 19.7729 74.9442 19.2198 74.573 18.5001C74.2143 17.7974 74.0289 16.9603 74.0168 15.9888H86.1752V14.7274C86.1752 13.1971 85.9631 11.8789 85.5389 10.7729C85.1146 9.65923 84.5313 8.74256 83.7889 8.02286C83.054 7.30317 82.2055 6.77286 81.2434 6.43195C80.6201 6.20439 79.9709 6.05113 79.2959 5.97216V9.23067C79.6661 9.31932 80.0085 9.45838 80.323 9.64786C80.9214 10.0039 81.3873 10.4926 81.7207 11.1138C82.054 11.7274 82.2245 12.4282 82.232 13.216H74.0245C74.0641 12.5322 74.2393 11.8996 74.5502 11.3183C74.9063 10.6592 75.4025 10.1289 76.0389 9.72741C76.421 9.48175 76.84 9.30985 77.2959 9.21171V5.94844C76.0024 6.06373 74.8523 6.43323 73.8457 7.05695C72.6108 7.81453 71.6487 8.87514 70.9593 10.2388C70.2775 11.5948 69.9366 13.1706 69.9366 14.966C69.9366 16.7918 70.2775 18.3789 70.9593 19.7274C71.6411 21.0683 72.6146 22.1062 73.8798 22.841ZM121.088 9.31832V6.1365H117.644V1.95468H113.531V6.1365H111.053V9.31832H113.531V19.0229C113.523 20.1138 113.758 21.0229 114.235 21.7501C114.72 22.4774 115.375 23.0153 116.201 23.3638C117.027 23.7047 117.955 23.86 118.985 23.8297C119.569 23.8145 120.061 23.7615 120.463 23.6706C120.872 23.5797 121.186 23.4963 121.406 23.4206L120.713 20.2047C120.599 20.235 120.432 20.2691 120.213 20.307C120 20.3448 119.766 20.3638 119.508 20.3638C119.167 20.3638 118.856 20.3107 118.576 20.2047C118.296 20.0986 118.069 19.9017 117.894 19.6138C117.728 19.3183 117.644 18.8941 117.644 18.341V9.31832H121.088Z" fill="#0048AF"/>
</svg>
