<svg width="75" height="74" viewBox="0 0 75 74" fill="none" xmlns="http://www.w3.org/2000/svg">
<path fill-rule="evenodd" clip-rule="evenodd" d="M68.0833 14.2922C66.4611 14.2922 64.9053 14.9366 63.7582 16.0837C62.6111 17.2308 61.9667 18.7866 61.9667 20.4089V24.4867H74.2V20.4089C74.2 18.7866 73.5556 17.2308 72.4085 16.0837C71.2614 14.9366 69.7056 14.2922 68.0833 14.2922ZM74.2 28.5644H61.9667V62.2061L68.0833 71.3811L74.2 62.2061V28.5644ZM0.799988 6.13666V67.3033C0.799988 68.9256 1.44442 70.4814 2.59152 71.6285C3.73862 72.7756 5.29441 73.42 6.91665 73.42H51.7722C53.3945 73.42 54.9502 72.7756 56.0973 71.6285C57.2444 70.4814 57.8889 68.9256 57.8889 67.3033V6.13666C57.8889 4.51441 57.2444 2.95862 56.0973 1.81152C54.9502 0.664422 53.3945 0.019989 51.7722 0.019989H6.91665C5.29441 0.019989 3.73862 0.664422 2.59152 1.81152C1.44442 2.95862 0.799988 4.51441 0.799988 6.13666ZM29.3444 18.37C29.3444 17.8292 29.5592 17.3106 29.9416 16.9283C30.324 16.5459 30.8426 16.3311 31.3833 16.3311H47.6944C48.2352 16.3311 48.7538 16.5459 49.1361 16.9283C49.5185 17.3106 49.7333 17.8292 49.7333 18.37C49.7333 18.9107 49.5185 19.4293 49.1361 19.8117C48.7538 20.1941 48.2352 20.4089 47.6944 20.4089H31.3833C30.8426 20.4089 30.324 20.1941 29.9416 19.8117C29.5592 19.4293 29.3444 18.9107 29.3444 18.37ZM31.3833 24.4867C30.8426 24.4867 30.324 24.7015 29.9416 25.0838C29.5592 25.4662 29.3444 25.9848 29.3444 26.5255C29.3444 27.0663 29.5592 27.5849 29.9416 27.9673C30.324 28.3496 30.8426 28.5644 31.3833 28.5644H47.6944C48.2352 28.5644 48.7538 28.3496 49.1361 27.9673C49.5185 27.5849 49.7333 27.0663 49.7333 26.5255C49.7333 25.9848 49.5185 25.4662 49.1361 25.0838C48.7538 24.7015 48.2352 24.4867 47.6944 24.4867H31.3833ZM29.3444 44.8755C29.3444 44.3348 29.5592 43.8162 29.9416 43.4338C30.324 43.0515 30.8426 42.8367 31.3833 42.8367H47.6944C48.2352 42.8367 48.7538 43.0515 49.1361 43.4338C49.5185 43.8162 49.7333 44.3348 49.7333 44.8755C49.7333 45.4163 49.5185 45.9349 49.1361 46.3173C48.7538 46.6996 48.2352 46.9144 47.6944 46.9144H31.3833C30.8426 46.9144 30.324 46.6996 29.9416 46.3173C29.5592 45.9349 29.3444 45.4163 29.3444 44.8755ZM31.3833 50.9922C30.8426 50.9922 30.324 51.207 29.9416 51.5894C29.5592 51.9718 29.3444 52.4904 29.3444 53.0311C29.3444 53.5718 29.5592 54.0905 29.9416 54.4728C30.324 54.8552 30.8426 55.07 31.3833 55.07H47.6944C48.2352 55.07 48.7538 54.8552 49.1361 54.4728C49.5185 54.0905 49.7333 53.5718 49.7333 53.0311C49.7333 52.4904 49.5185 51.9718 49.1361 51.5894C48.7538 51.207 48.2352 50.9922 47.6944 50.9922H31.3833ZM13.0333 44.8755V50.9922H19.15V44.8755H13.0333ZM10.9944 40.7978H21.1889C21.7296 40.7978 22.2482 41.0126 22.6306 41.3949C23.013 41.7773 23.2278 42.2959 23.2278 42.8367V53.0311C23.2278 53.5718 23.013 54.0905 22.6306 54.4728C22.2482 54.8552 21.7296 55.07 21.1889 55.07H10.9944C10.4537 55.07 9.93509 54.8552 9.55272 54.4728C9.17035 54.0905 8.95554 53.5718 8.95554 53.0311V42.8367C8.95554 42.2959 9.17035 41.7773 9.55272 41.3949C9.93509 41.0126 10.4537 40.7978 10.9944 40.7978ZM24.6693 19.8115C25.0407 19.4269 25.2462 18.9119 25.2415 18.3773C25.2369 17.8427 25.0224 17.3314 24.6444 16.9533C24.2664 16.5753 23.755 16.3609 23.2204 16.3562C22.6858 16.3516 22.1708 16.5571 21.7863 16.9285L15.0722 23.6426L12.4359 21.0063C12.0514 20.6349 11.5364 20.4294 11.0018 20.434C10.4672 20.4387 9.9558 20.6531 9.57778 21.0311C9.19975 21.4091 8.98532 21.9205 8.98068 22.4551C8.97603 22.9897 9.18154 23.5047 9.55294 23.8893L15.0722 29.4085L24.6693 19.8115Z" fill="#558EE1"/>
</svg>
