<svg width="123" height="25" viewBox="0 0 123 25" fill="none" xmlns="http://www.w3.org/2000/svg">
<path d="M21.2159 8.57955H16.9659C16.8447 7.88258 16.6212 7.26515 16.2955 6.72727C15.9697 6.18182 15.5644 5.7197 15.0795 5.34091C14.5947 4.96212 14.0417 4.67803 13.4205 4.48864C12.8068 4.29167 12.1439 4.19318 11.4318 4.19318C10.1667 4.19318 9.04545 4.51136 8.06818 5.14773C7.09091 5.77651 6.32576 6.70076 5.77273 7.92045C5.2197 9.13258 4.94318 10.6136 4.94318 12.3636C4.94318 14.1439 5.2197 15.6439 5.77273 16.8636C6.33333 18.0758 7.09848 18.9924 8.06818 19.6136C9.04545 20.2273 10.1629 20.5341 11.4205 20.5341C12.1174 20.5341 12.7689 20.4432 13.375 20.2614C13.9886 20.072 14.5379 19.7955 15.0227 19.4318C15.5152 19.0682 15.928 18.6212 16.2614 18.0909C16.6023 17.5606 16.8371 16.9545 16.9659 16.2727L21.2159 16.2955C21.0568 17.4015 20.7121 18.4394 20.1818 19.4091C19.6591 20.3788 18.9735 21.2348 18.125 21.9773C17.2765 22.7121 16.2841 23.2879 15.1477 23.7045C14.0114 24.1136 12.75 24.3182 11.3636 24.3182C9.31818 24.3182 7.49242 23.8447 5.88636 22.8977C4.2803 21.9508 3.01515 20.5833 2.09091 18.7955C1.16667 17.0076 0.704545 14.8636 0.704545 12.3636C0.704545 9.85606 1.17045 7.71212 2.10227 5.93182C3.03409 4.14394 4.30303 2.77651 5.90909 1.82954C7.51515 0.882575 9.33333 0.40909 11.3636 0.40909C12.6591 0.40909 13.8636 0.590908 14.9773 0.954544C16.0909 1.31818 17.0833 1.85227 17.9545 2.55682C18.8258 3.25379 19.5417 4.10985 20.1023 5.125C20.6705 6.13258 21.0417 7.28409 21.2159 8.57955ZM33.7885 24.3409C32.084 24.3409 30.6067 23.9659 29.3567 23.2159C28.1067 22.4659 27.137 21.4167 26.4476 20.0682C25.7658 18.7197 25.4249 17.1439 25.4249 15.3409C25.4249 13.5379 25.7658 11.9583 26.4476 10.6023C27.137 9.24621 28.1067 8.19318 29.3567 7.44318C30.6067 6.69318 32.084 6.31818 33.7885 6.31818C35.4931 6.31818 36.9703 6.69318 38.2203 7.44318C39.4703 8.19318 40.4363 9.24621 41.1181 10.6023C41.8075 11.9583 42.1522 13.5379 42.1522 15.3409C42.1522 17.1439 41.8075 18.7197 41.1181 20.0682C40.4363 21.4167 39.4703 22.4659 38.2203 23.2159C36.9703 23.9659 35.4931 24.3409 33.7885 24.3409ZM33.8113 21.0455C34.7355 21.0455 35.5082 20.7917 36.1294 20.2841C36.7506 19.7689 37.2128 19.0795 37.5158 18.2159C37.8264 17.3523 37.9817 16.3902 37.9817 15.3295C37.9817 14.2614 37.8264 13.2955 37.5158 12.4318C37.2128 11.5606 36.7506 10.8674 36.1294 10.3523C35.5082 9.83712 34.7355 9.57955 33.8113 9.57955C32.8643 9.57955 32.0764 9.83712 31.4476 10.3523C30.8264 10.8674 30.3605 11.5606 30.0499 12.4318C29.7469 13.2955 29.5953 14.2614 29.5953 15.3295C29.5953 16.3902 29.7469 17.3523 30.0499 18.2159C30.3605 19.0795 30.8264 19.7689 31.4476 20.2841C32.0764 20.7917 32.8643 21.0455 33.8113 21.0455ZM54.9918 24H47.1055V0.727272H55.1509C57.4615 0.727272 59.4464 1.19318 61.1055 2.125C62.7721 3.04924 64.0524 4.37879 64.9464 6.11364C65.8403 7.84848 66.2873 9.92424 66.2873 12.3409C66.2873 14.7652 65.8365 16.8485 64.935 18.5909C64.0411 20.3333 62.7494 21.6705 61.06 22.6023C59.3782 23.5341 57.3555 24 54.9918 24ZM51.3214 20.3523H54.7873C56.4085 20.3523 57.7608 20.0568 58.8441 19.4659C59.9274 18.8674 60.7418 17.9773 61.2873 16.7955C61.8327 15.6061 62.1055 14.1212 62.1055 12.3409C62.1055 10.5606 61.8327 9.08333 61.2873 7.90909C60.7418 6.72727 59.935 5.8447 58.8668 5.26136C57.8062 4.67045 56.488 4.375 54.9123 4.375H51.3214V20.3523ZM79.1184 24.3409C77.3684 24.3409 75.857 23.9773 74.5843 23.25C73.3192 22.5152 72.3457 21.4773 71.6639 20.1364C70.982 18.7879 70.6411 17.2008 70.6411 15.375C70.6411 13.5795 70.982 12.0038 71.6639 10.6477C72.3533 9.28409 73.3154 8.22348 74.5502 7.46591C75.7851 6.70076 77.2358 6.31818 78.9025 6.31818C79.9783 6.31818 80.9934 6.49242 81.948 6.84091C82.9101 7.18182 83.7586 7.71212 84.4934 8.43182C85.2358 9.15151 85.8192 10.0682 86.2434 11.1818C86.6676 12.2879 86.8798 13.6061 86.8798 15.1364V16.3977H72.573V13.625H82.9366C82.929 12.8371 82.7586 12.1364 82.4252 11.5227C82.0919 10.9015 81.626 10.4129 81.0275 10.0568C80.4366 9.70076 79.7472 9.52273 78.9593 9.52273C78.1184 9.52273 77.3798 9.72727 76.7434 10.1364C76.107 10.5379 75.6108 11.0682 75.2548 11.7273C74.9063 12.3788 74.7283 13.0947 74.7207 13.875V16.2955C74.7207 17.3106 74.9063 18.1818 75.2775 18.9091C75.6487 19.6288 76.1676 20.1818 76.8343 20.5682C77.501 20.947 78.2813 21.1364 79.1752 21.1364C79.7737 21.1364 80.3154 21.053 80.8002 20.8864C81.2851 20.7121 81.7055 20.4583 82.0616 20.125C82.4176 19.7917 82.6866 19.3788 82.8684 18.8864L86.7093 19.3182C86.4669 20.3333 86.0048 21.2197 85.323 21.9773C84.6487 22.7273 83.7851 23.3106 82.732 23.7273C81.679 24.1364 80.4745 24.3409 79.1184 24.3409ZM91.8217 24V0.727272H95.9353V9.43182H96.1058C96.3179 9.00758 96.6172 8.55682 97.0035 8.07955C97.3899 7.5947 97.9126 7.18182 98.5717 6.84091C99.2308 6.49242 100.072 6.31818 101.094 6.31818C102.443 6.31818 103.659 6.66288 104.742 7.35227C105.833 8.03409 106.697 9.04545 107.333 10.3864C107.977 11.7197 108.299 13.3561 108.299 15.2955C108.299 17.2121 107.985 18.8409 107.356 20.1818C106.727 21.5227 105.871 22.5455 104.788 23.25C103.704 23.9545 102.477 24.3068 101.106 24.3068C100.106 24.3068 99.2763 24.1402 98.6172 23.8068C97.9581 23.4735 97.4278 23.072 97.0263 22.6023C96.6323 22.125 96.3255 21.6742 96.1058 21.25H95.8672V24H91.8217ZM95.8558 15.2727C95.8558 16.4015 96.0149 17.3902 96.3331 18.2386C96.6588 19.0871 97.1247 19.75 97.7308 20.2273C98.3444 20.697 99.0869 20.9318 99.9581 20.9318C100.867 20.9318 101.629 20.6894 102.242 20.2045C102.856 19.7121 103.318 19.0417 103.629 18.1932C103.947 17.3371 104.106 16.3636 104.106 15.2727C104.106 14.1894 103.95 13.2273 103.64 12.3864C103.329 11.5455 102.867 10.8864 102.254 10.4091C101.64 9.93182 100.875 9.69318 99.9581 9.69318C99.0793 9.69318 98.3331 9.92424 97.7194 10.3864C97.1058 10.8485 96.6399 11.4962 96.3217 12.3295C96.0111 13.1629 95.8558 14.1439 95.8558 15.2727ZM121.792 6.54545V9.72727H111.758V6.54545H121.792ZM114.235 2.36364H118.349V18.75C118.349 19.303 118.432 19.7273 118.599 20.0227C118.773 20.3106 119 20.5076 119.281 20.6136C119.561 20.7197 119.872 20.7727 120.213 20.7727C120.47 20.7727 120.705 20.7538 120.917 20.7159C121.137 20.678 121.303 20.6439 121.417 20.6136L122.11 23.8295C121.891 23.9053 121.576 23.9886 121.167 24.0795C120.766 24.1705 120.273 24.2235 119.69 24.2386C118.659 24.2689 117.731 24.1136 116.906 23.7727C116.08 23.4242 115.425 22.8864 114.94 22.1591C114.463 21.4318 114.228 20.5227 114.235 19.4318V2.36364Z" fill="#0048AF"/>
</svg>
