<svg width="20" height="20" viewBox="0 0 20 20" fill="none" xmlns="http://www.w3.org/2000/svg">
<path d="M2.70145 5.06395C3.22428 4.69852 4.01243 4.76861 4.48186 5.15628L3.94346 4.3737C3.51017 3.75576 3.66535 3.0872 4.28385 2.65336C4.90235 2.22119 6.65495 3.3831 6.65495 3.3831C6.21778 2.75904 6.29954 1.96812 6.9236 1.53038C7.54766 1.09432 8.40867 1.24505 8.84584 1.87022L14.6415 10.0576L13.9029 17.2187L7.73844 14.9705L2.36161 6.99843C1.92054 6.37047 2.07294 5.50446 2.70145 5.06395Z" fill="#E0AA94"/>
<path d="M1.49962 9.61861C1.49962 9.61861 0.869996 8.70087 1.78829 8.07181C2.70547 7.44274 3.33454 8.35992 3.33454 8.35992L6.25517 12.6193C6.35584 12.4514 6.46597 12.2856 6.58889 12.1221L2.53527 6.2113C2.53527 6.2113 1.90621 5.29412 2.82394 4.66505C3.74112 4.03599 4.37019 4.95317 4.37019 4.95317L8.18297 10.5135C8.3248 10.3979 8.46997 10.2816 8.61959 10.1676L4.19944 3.72062C4.19944 3.72062 3.57037 2.80344 4.48811 2.17437C5.40529 1.5453 6.03435 2.46248 6.03435 2.46248L10.4545 8.90834C10.6169 8.80878 10.7777 8.72257 10.939 8.63135L6.80748 2.60654C6.80748 2.60654 6.17841 1.68936 7.09559 1.06029C8.01277 0.431226 8.64184 1.34841 8.64184 1.34841L13.0103 7.71917L13.6744 8.68808C10.9223 10.5758 10.6603 14.1272 12.2327 16.4204C12.547 16.8793 13.0058 16.565 13.0058 16.565C11.1186 13.8124 11.6948 10.7193 14.4475 8.83214L13.636 4.77073C13.636 4.77073 13.3329 3.7006 14.4025 3.39691C15.4726 3.09378 15.7763 4.16391 15.7763 4.16391L16.7135 6.94716C17.085 8.05067 17.4805 9.15029 18.0039 10.1904C19.4817 13.1271 18.599 16.777 15.8124 18.6886C12.7728 20.7727 8.61737 19.9979 6.53271 16.9588L1.49962 9.61861Z" fill="#E39075"/>
<path d="M6.67134 17.7987C4.44652 17.7987 2.19835 15.5506 2.19835 13.3257C2.19835 13.0182 1.97308 12.7695 1.6655 12.7695C1.35792 12.7695 1.08594 13.0182 1.08594 13.3257C1.08594 16.663 3.33412 18.9111 6.67134 18.9111C6.97892 18.9111 7.22755 18.6392 7.22755 18.3316C7.22755 18.024 6.97892 17.7987 6.67134 17.7987Z" fill="#5DADEC"/>
<path d="M3.89343 18.8884C2.22482 18.8884 1.11241 17.776 1.11241 16.1074C1.11241 15.7998 0.863786 15.5512 0.556204 15.5512C0.248623 15.5512 0 15.7998 0 16.1074C0 18.3322 1.66861 20.0008 3.89343 20.0008C4.20101 20.0008 4.44964 19.7522 4.44964 19.4446C4.44964 19.137 4.20101 18.8884 3.89343 18.8884ZM13.3489 1.08984C13.0419 1.08984 12.7927 1.33902 12.7927 1.64605C12.7927 1.95307 13.0419 2.20225 13.3489 2.20225C15.5737 2.20225 17.7985 4.19847 17.7985 6.65189C17.7985 6.95891 18.0477 7.20809 18.3547 7.20809C18.6618 7.20809 18.911 6.95891 18.911 6.65189C18.911 3.58498 16.6861 1.08984 13.3489 1.08984Z" fill="#5DADEC"/>
<path d="M16.1265 0C15.8195 0 15.5703 0.225819 15.5703 0.532844C15.5703 0.839869 15.8195 1.11241 16.1265 1.11241C17.7951 1.11241 18.8842 2.34996 18.8842 3.87007C18.8842 4.1771 19.1562 4.42628 19.4637 4.42628C19.7713 4.42628 19.9966 4.1771 19.9966 3.87007C19.9966 1.73591 18.3513 0 16.1265 0Z" fill="#5DADEC"/>
</svg>
