<svg width="123" height="25" viewBox="0 0 123 25" fill="none" xmlns="http://www.w3.org/2000/svg">
<path d="M21.216 9.07963H16.966C16.8447 8.38266 16.6213 7.76524 16.2955 7.22736C15.9697 6.68191 15.5644 6.21979 15.0796 5.841C14.5947 5.46221 14.0417 5.17812 13.4205 4.98873C12.8069 4.79176 12.144 4.69327 11.4319 4.69327C10.1667 4.69327 9.0455 5.01145 8.06823 5.64782C7.09095 6.2766 6.3258 7.20085 5.77277 8.42054C5.21974 9.63266 4.94323 11.1137 4.94323 12.8637C4.94323 14.644 5.21974 16.144 5.77277 17.3637C6.33338 18.5758 7.09853 19.4925 8.06823 20.1137C9.0455 20.7274 10.1629 21.0342 11.4205 21.0342C12.1175 21.0342 12.769 20.9433 13.375 20.7615C13.9887 20.5721 14.5379 20.2955 15.0228 19.9319C15.5152 19.5683 15.9281 19.1213 16.2614 18.591C16.6023 18.0607 16.8372 17.4546 16.966 16.7728L21.216 16.7955C21.0569 17.9016 20.7122 18.9395 20.1819 19.9092C19.6591 20.8789 18.9735 21.7349 18.125 22.4774C17.2766 23.2122 16.2841 23.788 15.1478 24.2046C14.0114 24.6137 12.75 24.8183 11.3637 24.8183C9.31823 24.8183 7.49247 24.3448 5.88641 23.3978C4.28035 22.4508 3.0152 21.0834 2.09095 19.2955C1.16671 17.5077 0.70459 15.3637 0.70459 12.8637C0.70459 10.3561 1.1705 8.21221 2.10232 6.43191C3.03414 4.64403 4.30307 3.2766 5.90914 2.32963C7.5152 1.38266 9.33338 0.90918 11.3637 0.90918C12.6591 0.90918 13.8637 1.091 14.9773 1.45463C16.091 1.81827 17.0834 2.35236 17.9546 3.05691C18.8258 3.75388 19.5417 4.60994 20.1023 5.62509C20.6705 6.63267 21.0417 7.78418 21.216 9.07963Z" fill="#F2F0F0"/>
<path d="M33.7886 24.841C32.084 24.841 30.6067 24.466 29.3567 23.716C28.1067 22.966 27.1371 21.9168 26.4477 20.5683C25.7658 19.2198 25.4249 17.644 25.4249 15.841C25.4249 14.038 25.7658 12.4584 26.4477 11.1024C27.1371 9.7463 28.1067 8.69327 29.3567 7.94327C30.6067 7.19327 32.084 6.81827 33.7886 6.81827C35.4931 6.81827 36.9704 7.19327 38.2204 7.94327C39.4704 8.69327 40.4363 9.7463 41.1181 11.1024C41.8075 12.4584 42.1522 14.038 42.1522 15.841C42.1522 17.644 41.8075 19.2198 41.1181 20.5683C40.4363 21.9168 39.4704 22.966 38.2204 23.716C36.9704 24.466 35.4931 24.841 33.7886 24.841ZM33.8113 21.5455C34.7355 21.5455 35.5083 21.2918 36.1295 20.7842C36.7507 20.269 37.2128 19.5796 37.5158 18.716C37.8264 17.8524 37.9818 16.8902 37.9818 15.8296C37.9818 14.7615 37.8264 13.7955 37.5158 12.9319C37.2128 12.0607 36.7507 11.3675 36.1295 10.8524C35.5083 10.3372 34.7355 10.0796 33.8113 10.0796C32.8643 10.0796 32.0764 10.3372 31.4477 10.8524C30.8264 11.3675 30.3605 12.0607 30.0499 12.9319C29.7469 13.7955 29.5954 14.7615 29.5954 15.8296C29.5954 16.8902 29.7469 17.8524 30.0499 18.716C30.3605 19.5796 30.8264 20.269 31.4477 20.7842C32.0764 21.2918 32.8643 21.5455 33.8113 21.5455Z" fill="#F2F0F0"/>
<path d="M54.9919 24.5001H47.1055V1.22736H55.151C57.4616 1.22736 59.4464 1.69327 61.1055 2.62509C62.7722 3.54933 64.0525 4.87888 64.9464 6.61373C65.8403 8.34857 66.2873 10.4243 66.2873 12.841C66.2873 15.2652 65.8366 17.3486 64.935 19.091C64.0411 20.8334 62.7494 22.1705 61.06 23.1024C59.3782 24.0342 57.3555 24.5001 54.9919 24.5001ZM51.3214 20.8524H54.7873C56.4085 20.8524 57.7608 20.5569 58.8441 19.966C59.9275 19.3675 60.7419 18.4774 61.2873 17.2955C61.8328 16.1061 62.1055 14.6213 62.1055 12.841C62.1055 11.0607 61.8328 9.58342 61.2873 8.40918C60.7419 7.22736 59.935 6.34479 58.8669 5.76145C57.8063 5.17054 56.4881 4.87509 54.9123 4.87509H51.3214V20.8524Z" fill="#F2F0F0"/>
<path d="M79.1185 24.841C77.3685 24.841 75.8571 24.4774 74.5844 23.7501C73.3192 23.0152 72.3457 21.9774 71.6639 20.6365C70.9821 19.288 70.6412 17.7008 70.6412 15.8751C70.6412 14.0796 70.9821 12.5039 71.6639 11.1478C72.3533 9.78418 73.3154 8.72357 74.5503 7.966C75.7851 7.20085 77.2359 6.81827 78.9025 6.81827C79.9783 6.81827 80.9935 6.99251 81.948 7.341C82.9101 7.68191 83.7586 8.21221 84.4935 8.93191C85.2359 9.6516 85.8192 10.5683 86.2435 11.6819C86.6677 12.788 86.8798 14.1061 86.8798 15.6365V16.8978H72.573V14.1251H82.9366C82.9291 13.3372 82.7586 12.6365 82.4253 12.0228C82.0919 11.4016 81.626 10.913 81.0275 10.5569C80.4366 10.2008 79.7472 10.0228 78.9594 10.0228C78.1184 10.0228 77.3798 10.2274 76.7435 10.6365C76.1071 11.038 75.6109 11.5683 75.2548 12.2274C74.9063 12.8789 74.7283 13.5948 74.7207 14.3751V16.7955C74.7207 17.8107 74.9063 18.6819 75.2775 19.4092C75.6488 20.1289 76.1677 20.6819 76.8344 21.0683C77.501 21.4471 78.2813 21.6365 79.1753 21.6365C79.7738 21.6365 80.3154 21.5531 80.8003 21.3865C81.2851 21.2122 81.7056 20.9584 82.0616 20.6251C82.4177 20.2918 82.6866 19.8789 82.8685 19.3865L86.7094 19.8183C86.4669 20.8334 86.0048 21.7198 85.323 22.4774C84.6488 23.2274 83.7851 23.8107 82.7321 24.2274C81.6791 24.6365 80.4745 24.841 79.1185 24.841Z" fill="#F2F0F0"/>
<path d="M91.8218 24.5001V1.22736H95.9354V9.93191H96.1058C96.318 9.50766 96.6172 9.05691 97.0036 8.57963C97.3899 8.09479 97.9127 7.68191 98.5718 7.341C99.2308 6.99251 100.072 6.81827 101.094 6.81827C102.443 6.81827 103.659 7.16297 104.742 7.85236C105.833 8.53418 106.697 9.54554 107.333 10.8865C107.977 12.2198 108.299 13.8561 108.299 15.7955C108.299 17.7122 107.985 19.341 107.356 20.6819C106.727 22.0228 105.871 23.0455 104.788 23.7501C103.704 24.4546 102.477 24.8069 101.106 24.8069C100.106 24.8069 99.2763 24.6402 98.6172 24.3069C97.9581 23.9736 97.4278 23.5721 97.0263 23.1024C96.6324 22.6251 96.3255 22.1743 96.1058 21.7501H95.8672V24.5001H91.8218ZM95.8558 15.7728C95.8558 16.9016 96.0149 17.8902 96.3331 18.7387C96.6589 19.5872 97.1248 20.2501 97.7308 20.7274C98.3445 21.1971 99.0869 21.4319 99.9581 21.4319C100.867 21.4319 101.629 21.1895 102.242 20.7046C102.856 20.2122 103.318 19.5418 103.629 18.6933C103.947 17.8372 104.106 16.8637 104.106 15.7728C104.106 14.6895 103.951 13.7274 103.64 12.8865C103.329 12.0455 102.867 11.3865 102.254 10.9092C101.64 10.4319 100.875 10.1933 99.9581 10.1933C99.0793 10.1933 98.3331 10.4243 97.7195 10.8865C97.1058 11.3486 96.6399 11.9963 96.3218 12.8296C96.0111 13.663 95.8558 14.644 95.8558 15.7728Z" fill="#F2F0F0"/>
<path d="M121.792 7.04554V10.2274H111.758V7.04554H121.792ZM114.235 2.86373H118.349V19.2501C118.349 19.8031 118.432 20.2274 118.599 20.5228C118.773 20.8107 119 21.0077 119.281 21.1137C119.561 21.2198 119.872 21.2728 120.213 21.2728C120.47 21.2728 120.705 21.2539 120.917 21.216C121.137 21.1781 121.303 21.144 121.417 21.1137L122.11 24.3296C121.891 24.4054 121.576 24.4887 121.167 24.5796C120.766 24.6705 120.273 24.7236 119.69 24.7387C118.66 24.769 117.731 24.6137 116.906 24.2728C116.08 23.9243 115.425 23.3865 114.94 22.6592C114.463 21.9319 114.228 21.0228 114.235 19.9319V2.86373Z" fill="#F2F0F0"/>
</svg>
