<svg width="599" height="552" viewBox="0 0 599 552" fill="none" xmlns="http://www.w3.org/2000/svg">
<path d="M299.5 551.461C464.909 551.461 599 543.632 599 533.975C599 524.318 464.909 516.489 299.5 516.489C134.091 516.489 0 524.318 0 533.975C0 543.632 134.091 551.461 299.5 551.461Z" fill="#F5F5F5"/>
<path d="M452.811 143.44L437.487 137.261C437.487 137.261 417.267 174.133 411.475 176.002C403.597 178.535 387.285 185.579 377.615 186.815C376.302 188.359 374.155 193.163 374.356 194.909C387.347 199.249 415.893 193.488 422.01 188.946C435.927 178.643 452.811 143.44 452.811 143.44Z" fill="#E58A7B"/>
<path d="M457.522 135.055C460.38 145.605 444.902 166.829 444.902 166.829L424.62 155.46C424.62 155.46 428.42 146.733 433.054 137.851C440.484 123.5 454.263 123.022 457.522 135.055Z" fill="#0056D2"/>
<path opacity="0.2" d="M457.522 135.055C460.38 145.605 444.902 166.829 444.902 166.829L424.62 155.46C424.62 155.46 428.42 146.733 433.054 137.851C440.484 123.5 454.263 123.022 457.522 135.055Z" fill="black"/>
<path opacity="0.2" d="M432.668 159.999L440.654 164.479L442.06 139.965C437.41 143.533 434.135 154.284 432.668 159.999Z" fill="black"/>
<path d="M444.175 127.113C444.175 127.113 428.389 162.239 437.595 227.641H499.8C500.788 218.095 497.513 171.507 509.361 126.526C502.537 125.192 495.633 124.31 488.693 123.885C479.891 123.375 471.066 123.375 462.264 123.885C456.162 124.504 450.115 125.583 444.175 127.113Z" fill="#0056D2"/>
<path opacity="0.2" d="M444.175 127.113C444.175 127.113 428.389 162.239 437.595 227.641H499.8C500.788 218.095 497.513 171.507 509.361 126.526C502.537 125.192 495.633 124.31 488.693 123.885C479.891 123.375 471.066 123.375 462.264 123.885C456.162 124.504 450.115 125.583 444.175 127.113Z" fill="black"/>
<g style="mix-blend-mode:multiply">
<path d="M429.748 535.342C429.656 537.01 453.243 538.354 482.422 538.354C511.601 538.354 535.359 537.01 535.451 535.342C535.544 533.674 511.972 532.345 482.778 532.345C453.583 532.345 429.856 533.689 429.748 535.342Z" fill="#E8ECF1"/>
</g>
<path d="M471.27 491.509L460.237 495.78L469.741 520.331L480.774 516.06L471.27 491.509Z" fill="#E58A7B"/>
<path d="M520.468 523.464H508.837L504.573 496.54H516.205L520.468 523.464Z" fill="#E58A7B"/>
<path d="M508.033 522.12H521.101C521.328 522.121 521.547 522.202 521.72 522.349C521.892 522.496 522.007 522.7 522.044 522.924L523.727 533.258C523.763 533.517 523.742 533.781 523.667 534.031C523.591 534.282 523.462 534.513 523.289 534.71C523.117 534.906 522.903 535.063 522.664 535.169C522.425 535.276 522.166 535.33 521.905 535.328C517.348 535.25 515.154 534.972 509.408 534.972C505.871 534.972 498.595 535.343 493.683 535.343C488.771 535.343 488.447 530.524 490.47 530.076C499.553 528.114 503.075 525.442 506.103 522.846C506.636 522.378 507.323 522.119 508.033 522.12Z" fill="#263238"/>
<path d="M469.415 518.135L481.773 514.521C481.993 514.458 482.229 514.474 482.439 514.563C482.65 514.653 482.824 514.813 482.931 515.015L487.566 524.283C487.673 524.518 487.728 524.774 487.727 525.033C487.725 525.291 487.667 525.546 487.557 525.78C487.447 526.014 487.287 526.221 487.088 526.387C486.889 526.552 486.657 526.673 486.407 526.739C481.912 527.975 478.9 528.732 473.277 530.369C469.4 531.497 465.446 533.335 461.615 534.555C458.958 535.405 452.717 535.436 449.489 535.436C444.716 535.436 443.65 530.4 445.704 530.168C450.879 529.597 451.574 529.859 454.432 528.423C459.108 526.379 463.346 523.452 466.913 519.803C467.586 519.037 468.449 518.461 469.415 518.135Z" fill="#263238"/>
<path d="M379.561 186.751L366.771 181.391L361.504 195.571C366.746 196.37 372.079 196.37 377.322 195.571L379.561 186.751Z" fill="#E58A7B"/>
<path d="M357.256 181.023L356.916 190.445L361.504 195.543L366.771 181.363L357.256 181.023Z" fill="#E58A7B"/>
<path d="M472.784 493.595L461.717 497.868L466.618 510.564L477.685 506.291L472.784 493.595Z" fill="#CF6F64"/>
<path d="M516.205 496.54H504.573L506.782 510.427H518.414L516.205 496.54Z" fill="#CF6F64"/>
<path opacity="0.2" d="M435.618 209.954C435.85 212.75 436.112 215.608 436.452 218.543L482.7 203.528C489.923 201.388 496.2 196.849 500.495 190.661C500.681 186.537 500.912 182.196 501.268 177.67C501.422 175.477 501.607 173.222 501.808 170.935C502.009 168.649 502.287 166.116 502.58 163.675L435.618 209.954Z" fill="black"/>
<path d="M450.725 159.29L449.181 159.104C450.092 151.381 455.854 145.295 461.924 145.449V146.994C456.611 146.886 451.544 152.369 450.725 159.29Z" fill="white"/>
<path d="M458.958 173.546H458.695V172.001C464.009 172.202 468.998 166.657 469.817 159.752L471.362 159.937C470.543 167.491 464.967 173.546 458.958 173.546Z" fill="white"/>
<path d="M487.829 94.1176C485.651 102.629 483.087 118.215 488.694 123.884C488.694 123.884 484.77 132.519 468.968 132.519C454.525 132.519 462.264 123.884 462.264 123.884C471.872 121.628 472.042 114.616 470.776 107.973L487.829 94.1176Z" fill="#E58A7B"/>
<path d="M480.878 99.7712L470.791 107.974C471.104 109.5 471.285 111.05 471.332 112.608C474.282 115.543 480.198 108.113 480.801 104.313C481.107 102.817 481.133 101.277 480.878 99.7712Z" fill="#CF6F64"/>
<path d="M453.444 94.0089C454.145 95.2254 455.091 96.284 456.22 97.1186C457.35 97.9532 458.639 98.5457 460.008 98.8592C463.716 99.6779 465.569 96.2641 464.55 92.8349C463.638 89.7455 460.595 85.5903 456.826 86.3009C456.019 86.4672 455.263 86.8245 454.622 87.343C453.982 87.8614 453.474 88.5259 453.143 89.2807C452.812 90.0355 452.666 90.8587 452.718 91.6813C452.771 92.5039 453.019 93.3021 453.444 94.0089Z" fill="#CF6F64"/>
<path d="M459.576 66.7773C453.799 69.4187 451.76 92.3728 459.02 95.7711C466.28 99.1694 470.512 61.757 459.576 66.7773Z" fill="#263238"/>
<path d="M489.589 81.3121C488.199 92.8355 488.044 99.6167 481.866 105.517C479.951 107.476 477.533 108.866 474.877 109.537C472.222 110.207 469.433 110.13 466.818 109.315C464.204 108.5 461.865 106.978 460.061 104.918C458.257 102.858 457.057 100.339 456.595 97.6394C454.725 87.29 457.305 70.1903 468.859 65.6026C471.287 64.5318 473.957 64.1298 476.592 64.4383C479.228 64.7468 481.732 65.7546 483.847 67.3571C485.962 68.9597 487.609 71.0987 488.619 73.5525C489.629 76.0062 489.964 78.6853 489.589 81.3121Z" fill="#E58A7B"/>
<path d="M470.605 72.7393C479.162 70.5612 485.449 69.0783 483.194 76.1994C480.213 85.7147 476.629 94.921 481.433 95.3381C484.368 95.6007 497.343 90.1016 495.691 84.5252C494.254 79.6749 500.325 78.3465 501.406 75.8904C505.407 66.993 493.961 68.167 496 62.7605C498.039 57.3541 486.731 48.6421 480.553 52.9827C470.497 59.9956 453.243 59.8874 462.31 48.3486C468.813 40.1154 457.212 41.7991 457.212 41.7991C457.212 41.7991 464.225 45.9543 452.424 52.3802C439.943 59.2387 451.389 77.6668 470.605 72.7393Z" fill="#263238"/>
<path d="M494.131 94.0089C492.442 96.4534 489.903 98.1823 487.01 98.8592C483.195 99.6779 481.727 96.2641 483.164 92.8349C484.446 89.7455 487.968 85.5903 491.613 86.3009C495.259 87.0114 496.093 90.9813 494.131 94.0089Z" fill="#E58A7B"/>
<path d="M437.595 227.642C437.595 227.642 427.153 321.095 426.335 356.561C425.5 393.449 461.723 508.544 461.723 508.544L480.26 500.82C480.26 500.82 458.634 395.658 461.723 359.435C464.998 319.937 478.53 227.703 478.53 227.703L437.595 227.642Z" fill="#0056D2"/>
<path opacity="0.2" d="M463.546 253.299C455.22 270.569 460.827 304.722 465.338 324.958C467.052 310.669 469.091 295.161 471.022 280.81C470.837 258.752 469.122 241.714 463.546 253.299Z" fill="black"/>
<path d="M479.441 494.702C479.534 494.702 481.635 500.603 481.635 500.603L460.256 509.593L456.889 503.321L479.441 494.702Z" fill="#0056D2"/>
<path d="M459.669 227.642C459.669 227.642 467.655 316.523 472.938 349.811C478.746 386.281 501.515 507.74 501.515 507.74H522.816C522.816 507.74 510.057 389.232 507.647 353.117C505.021 313.943 499.8 227.642 499.8 227.642H459.669Z" fill="#0056D2"/>
<path d="M523.14 502.193C523.233 502.193 523.85 508.14 523.85 508.14H500.433L498.765 501.313L523.14 502.193Z" fill="#0056D2"/>
<path opacity="0.2" d="M514.984 495.152C514.935 495.152 514.889 495.135 514.852 495.104C514.815 495.073 514.79 495.03 514.783 494.982C514.659 493.901 503.151 386.854 500.989 354.415C498.641 319.227 493.914 241.174 493.868 240.386C493.866 240.36 493.869 240.335 493.877 240.31C493.886 240.286 493.899 240.264 493.916 240.245C493.934 240.226 493.955 240.211 493.979 240.201C494.002 240.19 494.028 240.185 494.053 240.185C494.104 240.185 494.153 240.204 494.19 240.238C494.227 240.273 494.25 240.32 494.254 240.371C494.254 241.158 499.027 319.15 501.375 354.4C503.538 386.838 515.046 493.808 515.154 494.966C515.158 494.992 515.157 495.018 515.151 495.043C515.144 495.068 515.133 495.092 515.117 495.112C515.101 495.133 515.081 495.149 515.058 495.162C515.035 495.174 515.01 495.181 514.984 495.183V495.152Z" fill="black"/>
<path d="M471.918 84.5256C471.918 85.4678 471.331 86.2247 470.713 86.2247C470.095 86.2247 469.647 85.4678 469.709 84.5256C469.771 83.5833 470.296 82.8264 470.914 82.8264C471.532 82.8264 471.98 83.5988 471.918 84.5256Z" fill="#263238"/>
<path d="M461.321 84.5256C461.321 85.4678 460.719 86.2247 460.116 86.2247C459.514 86.2247 459.051 85.4678 459.097 84.5256C459.143 83.5833 459.699 82.8264 460.317 82.8264C460.935 82.8264 461.383 83.5988 461.321 84.5256Z" fill="#263238"/>
<path d="M464.658 85.0046C463.368 87.8819 461.707 90.5773 459.715 93.0216C461.26 94.5663 464.148 93.8557 464.148 93.8557L464.658 85.0046Z" fill="#DF5753"/>
<path d="M464.936 97.795C464.9 97.7951 464.865 97.7878 464.832 97.7737C464.799 97.7595 464.769 97.7388 464.745 97.7127C464.72 97.6867 464.701 97.6559 464.689 97.6222C464.676 97.5885 464.671 97.5527 464.673 97.517C464.677 97.4418 464.71 97.3711 464.765 97.3194C464.819 97.2676 464.892 97.2388 464.967 97.2389C466.148 97.2471 467.316 96.9905 468.386 96.488C469.455 95.9854 470.398 95.2497 471.146 94.3349C471.199 94.2882 471.268 94.2625 471.339 94.2625C471.41 94.2625 471.478 94.2882 471.532 94.3349C471.582 94.3867 471.61 94.456 471.61 94.528C471.61 94.6 471.582 94.6692 471.532 94.7211C470.732 95.6933 469.724 96.4741 468.582 97.006C467.441 97.5379 466.195 97.8075 464.936 97.795Z" fill="#263238"/>
<path d="M473.802 81.6823C473.728 81.7203 473.646 81.7401 473.563 81.7401C473.48 81.7401 473.398 81.7203 473.323 81.6823C472.746 81.3087 472.088 81.0764 471.404 81.0039C470.719 80.9315 470.028 81.021 469.385 81.2652C469.322 81.2966 469.253 81.3151 469.183 81.3196C469.113 81.3241 469.043 81.3146 468.977 81.2915C468.911 81.2685 468.85 81.2324 468.798 81.1855C468.746 81.1385 468.704 81.0816 468.674 81.0181C468.617 80.8806 468.615 80.7262 468.67 80.5877C468.725 80.4492 468.832 80.3376 468.967 80.2766C469.775 79.9468 470.65 79.8167 471.519 79.8974C472.387 79.9781 473.224 80.2671 473.957 80.74C474.016 80.7803 474.067 80.8319 474.106 80.8919C474.145 80.9519 474.172 81.019 474.185 81.0894C474.197 81.1598 474.196 81.2321 474.181 81.3021C474.166 81.372 474.137 81.4383 474.096 81.4969C474.018 81.5855 473.916 81.6498 473.802 81.6823Z" fill="#263238"/>
<path d="M457.228 78.5932C457.146 78.5733 457.071 78.5304 457.012 78.4696C456.96 78.4193 456.92 78.3592 456.892 78.2929C456.864 78.2266 456.85 78.1554 456.85 78.0834C456.85 78.0115 456.864 77.9403 456.892 77.874C456.92 77.8077 456.96 77.7476 457.012 77.6973C457.604 77.0332 458.341 76.5149 459.167 76.1827C459.992 75.8504 460.883 75.7133 461.769 75.7818C461.841 75.7928 461.909 75.8183 461.969 75.8566C462.03 75.8949 462.083 75.9453 462.123 76.0047C462.164 76.0641 462.192 76.1312 462.205 76.2018C462.219 76.2724 462.218 76.345 462.202 76.4152C462.169 76.5582 462.085 76.6842 461.965 76.7696C461.846 76.8549 461.699 76.8937 461.553 76.8786C460.851 76.8344 460.149 76.9505 459.498 77.2181C458.848 77.4857 458.267 77.8979 457.8 78.4233C457.729 78.5014 457.639 78.5587 457.538 78.5887C457.437 78.6187 457.33 78.6202 457.228 78.5932Z" fill="#263238"/>
<path d="M515.339 141.725L499.275 137.446C499.275 137.446 483.519 176.234 477.942 178.751C470.373 182.212 451.204 194.198 443.048 199.867C442.6 201.798 442.955 206.911 443.975 208.317C457.877 205.784 484.492 195.542 490.053 190.337C502.735 178.458 515.339 141.725 515.339 141.725Z" fill="#E58A7B"/>
<path d="M504.125 524.159C503.341 524.222 502.56 524.009 501.916 523.557C501.717 523.377 501.568 523.149 501.484 522.894C501.4 522.64 501.384 522.368 501.437 522.105C501.447 521.941 501.5 521.782 501.593 521.646C501.685 521.511 501.813 521.402 501.962 521.333C503.26 520.669 506.89 522.97 507.307 523.233C507.352 523.261 507.388 523.303 507.407 523.354C507.427 523.404 507.429 523.459 507.415 523.511C507.402 523.565 507.375 523.614 507.337 523.655C507.299 523.695 507.251 523.726 507.198 523.742C506.191 523.99 505.161 524.13 504.125 524.159ZM502.58 521.75C502.463 521.724 502.342 521.724 502.225 521.75C502.165 521.78 502.116 521.827 502.083 521.884C502.05 521.942 502.035 522.008 502.039 522.074C501.998 522.254 502.005 522.441 502.059 522.618C502.113 522.794 502.213 522.953 502.348 523.078C502.951 523.619 504.464 523.681 506.457 523.294C505.271 522.513 503.934 521.987 502.534 521.75H502.58Z" fill="#0056D2"/>
<path d="M507.121 523.744C507.081 523.757 507.038 523.757 506.998 523.744C505.839 523.095 503.661 520.546 503.986 519.249C504.034 519.043 504.15 518.859 504.316 518.728C504.481 518.596 504.686 518.524 504.897 518.523C505.104 518.495 505.315 518.512 505.515 518.574C505.715 518.635 505.899 518.739 506.056 518.878C507.338 519.975 507.415 523.342 507.415 523.512C507.422 523.563 507.413 523.615 507.388 523.659C507.362 523.704 507.323 523.739 507.276 523.759C507.224 523.77 507.17 523.764 507.121 523.744ZM505.052 519.032H504.943C504.588 519.032 504.542 519.233 504.526 519.31C504.341 520.067 505.716 521.998 506.859 522.909C506.854 521.605 506.449 520.333 505.7 519.264C505.521 519.108 505.289 519.025 505.052 519.032Z" fill="#0056D2"/>
<path d="M463.113 522.229C462.168 522.558 461.139 522.558 460.194 522.229C459.979 522.113 459.797 521.944 459.665 521.739C459.533 521.534 459.454 521.298 459.437 521.055C459.418 520.902 459.437 520.747 459.494 520.604C459.551 520.461 459.643 520.334 459.761 520.236C460.997 519.124 466.048 520.236 466.62 520.452C466.674 520.466 466.722 520.499 466.756 520.543C466.79 520.588 466.807 520.643 466.805 520.7C466.807 520.758 466.793 520.815 466.762 520.864C466.732 520.914 466.688 520.953 466.635 520.978C465.498 521.491 464.32 521.91 463.113 522.229ZM460.596 520.391C460.419 520.426 460.254 520.506 460.117 520.622C460.067 520.659 460.03 520.709 460.008 520.767C459.986 520.824 459.981 520.887 459.993 520.947C460.003 521.109 460.054 521.266 460.14 521.403C460.226 521.541 460.346 521.655 460.487 521.735C461.306 522.167 463.206 521.827 465.662 520.792C464.008 520.375 462.295 520.239 460.596 520.391Z" fill="#0056D2"/>
<path d="M466.589 520.978H466.465C464.92 520.699 461.831 518.923 461.738 517.595C461.738 517.286 461.877 516.853 462.619 516.606C462.869 516.517 463.135 516.479 463.401 516.495C463.666 516.511 463.925 516.58 464.163 516.699C465.832 517.517 466.712 520.483 466.759 520.622C466.769 520.669 466.768 520.718 466.754 520.764C466.741 520.81 466.716 520.851 466.681 520.885C466.658 520.923 466.626 520.954 466.589 520.978ZM462.928 517.069H462.773C462.294 517.239 462.294 517.44 462.294 517.502C462.294 518.305 464.534 519.773 466.094 520.267C465.735 519.026 464.974 517.94 463.932 517.178C463.622 517.02 463.264 516.981 462.928 517.069Z" fill="#0056D2"/>
<path d="M444.361 198.957L428.25 206.371L426.381 211.005L432.328 215.006C432.328 215.006 443.45 213.801 446.616 206.649L444.361 198.957Z" fill="#E58A7B"/>
<path d="M445.041 208.58C444.681 205.484 443.659 202.502 442.044 199.837L444.593 197.921C446.51 200.992 447.733 204.446 448.176 208.039L445.041 208.58Z" fill="#263238"/>
<path d="M447.79 201.151C448.131 201.687 448.298 202.315 448.269 202.949C448.241 203.583 448.017 204.193 447.63 204.695C447.242 205.198 446.709 205.569 446.103 205.758C445.497 205.947 444.847 205.945 444.242 205.752C443.638 205.558 443.107 205.183 442.723 204.678C442.339 204.172 442.12 203.561 442.096 202.927C442.072 202.292 442.244 201.666 442.588 201.133C442.933 200.599 443.433 200.185 444.021 199.946C444.681 199.61 445.448 199.548 446.153 199.773C446.859 199.999 447.447 200.494 447.79 201.151Z" fill="#263238"/>
<path d="M417.359 212.363L419.507 214.526L433.965 208.347L428.249 206.37L417.359 212.363Z" fill="#E58A7B"/>
<path opacity="0.2" d="M479.441 494.702C479.534 494.702 481.635 500.603 481.635 500.603L460.256 509.593L456.889 503.321L479.441 494.702Z" fill="black"/>
<path opacity="0.2" d="M523.14 502.193C523.233 502.193 523.85 508.14 523.85 508.14H500.433L498.765 501.313L523.14 502.193Z" fill="black"/>
<path d="M519.526 137.276C523.774 150.978 507.168 169.715 507.168 169.715L484.229 160.354C486.948 152.435 490.083 144.664 493.621 137.076C500.665 121.891 515.231 123.451 519.526 137.276Z" fill="#0056D2"/>
<path opacity="0.2" d="M519.526 137.276C523.774 150.978 507.168 169.715 507.168 169.715L484.229 160.354C486.948 152.435 490.083 144.664 493.621 137.076C500.665 121.891 515.231 123.451 519.526 137.276Z" fill="black"/>
<path d="M291.591 -0.000488281H281.721V1.59054H291.591V-0.000488281Z" fill="#0056D2"/>
<path d="M419.365 62.9729L418.171 89.4838L419.76 89.5554L420.955 63.0445L419.365 62.9729Z" fill="#0056D2"/>
<path d="M416.295 7.13562H234.021L217.061 386.697H399.334L416.295 7.13562Z" fill="#0056D2"/>
<path opacity="0.56" d="M410.857 12.3585H228.584L211.623 391.92H393.896L410.857 12.3585Z" fill="#FAFAFA"/>
<path opacity="0.07" d="M405.42 17.5637H223.146L206.17 397.125H388.443L405.42 17.5637Z" fill="#0056D2"/>
<path d="M384.674 183.106H229.092L227.795 212.146H383.376L384.674 183.106Z" fill="white"/>
<path d="M314.655 161.914H230.036L229.465 174.905H314.083L314.655 161.914Z" fill="#0056D2"/>
<path d="M381.168 261.486H225.587L224.289 290.526H379.87L381.168 261.486Z" fill="white"/>
<path opacity="0.47" d="M352.637 329.746H248.015L246.455 364.547H351.077L352.637 329.746Z" fill="#0056D2"/>
<path d="M345.64 369.953H241.018C240.972 369.965 240.924 369.965 240.879 369.953C240.863 369.908 240.863 369.859 240.879 369.814L242.423 334.997C242.423 334.973 242.428 334.95 242.438 334.928C242.447 334.906 242.461 334.887 242.478 334.871C242.496 334.855 242.517 334.843 242.539 334.835C242.561 334.828 242.585 334.825 242.609 334.827H347.231C347.25 334.818 347.271 334.813 347.292 334.813C347.314 334.813 347.335 334.818 347.354 334.827C347.365 334.846 347.371 334.867 347.371 334.889C347.371 334.911 347.365 334.932 347.354 334.951L345.84 369.845C345.822 369.881 345.793 369.911 345.757 369.931C345.721 369.95 345.68 369.958 345.64 369.953ZM241.203 369.583H345.454L346.999 335.136H242.748L241.203 369.583Z" fill="white"/>
<path d="M296.379 240.292H226.529L225.957 253.298H295.792L296.379 240.292Z" fill="#0056D2"/>
<path d="M350.644 89.2993C350.245 97.7508 347.239 105.872 342.04 112.547C338.192 117.589 333.239 121.682 327.562 124.512C321.885 127.343 315.636 128.835 309.293 128.874C304.167 128.913 299.088 127.903 294.367 125.904C289.647 123.906 285.386 120.962 281.846 117.255C278.306 113.547 275.563 109.154 273.785 104.346C272.008 99.5386 271.233 94.4177 271.51 89.2993C272.053 78.678 276.633 68.6654 284.314 61.3092C291.995 53.953 302.195 49.8089 312.83 49.7243C317.96 49.6765 323.045 50.681 327.771 52.6759C332.497 54.6708 336.764 57.6136 340.308 61.3226C343.852 65.0315 346.597 69.4278 348.375 74.2397C350.153 79.0517 350.925 84.1771 350.644 89.2993Z" fill="white"/>
<path d="M354.368 58.0027C354.267 60.25 353.468 62.4098 352.082 64.1815C351.056 65.5207 349.738 66.6079 348.228 67.3601C346.719 68.1124 345.057 68.5098 343.37 68.5221C341.736 68.532 340.124 68.1416 338.675 67.3849C337.226 66.6283 335.985 65.5285 335.06 64.1815C333.834 62.3613 333.227 60.1947 333.329 58.0027C333.479 55.1827 334.698 52.5259 336.739 50.5741C338.78 48.6223 341.488 47.5224 344.312 47.4988C345.675 47.4864 347.025 47.753 348.28 48.2823C349.536 48.8117 350.669 49.5924 351.611 50.5765C352.553 51.5606 353.284 52.7271 353.758 54.0043C354.232 55.2815 354.44 56.6423 354.368 58.0027Z" fill="#0056D2"/>
<path d="M245.854 197.628C245.78 198.872 245.236 200.043 244.333 200.903C243.43 201.763 242.235 202.248 240.988 202.262C240.386 202.269 239.789 202.153 239.234 201.92C238.678 201.687 238.177 201.343 237.76 200.909C237.343 200.474 237.019 199.959 236.809 199.395C236.6 198.83 236.508 198.229 236.539 197.628C236.606 196.38 237.147 195.206 238.052 194.344C238.956 193.483 240.156 193 241.405 192.994C242.006 192.989 242.603 193.107 243.157 193.34C243.711 193.574 244.212 193.918 244.628 194.352C245.045 194.786 245.368 195.3 245.579 195.863C245.79 196.427 245.883 197.027 245.854 197.628Z" fill="#263238"/>
<path d="M266.676 197.628C266.606 198.874 266.063 200.046 265.16 200.907C264.256 201.768 263.058 202.252 261.81 202.262C261.21 202.267 260.614 202.149 260.061 201.915C259.507 201.682 259.008 201.337 258.592 200.903C258.177 200.469 257.855 199.954 257.646 199.391C257.437 198.828 257.346 198.228 257.377 197.628C257.444 196.383 257.983 195.211 258.884 194.35C259.785 193.489 260.981 193.004 262.228 192.994C262.83 192.987 263.427 193.103 263.982 193.336C264.537 193.569 265.039 193.913 265.456 194.347C265.873 194.781 266.196 195.297 266.406 195.861C266.616 196.425 266.708 197.027 266.676 197.628Z" fill="#263238"/>
<path d="M287.513 197.628C287.443 198.874 286.9 200.046 285.997 200.907C285.093 201.768 283.895 202.252 282.647 202.262C282.046 202.267 281.45 202.149 280.896 201.915C280.341 201.682 279.841 201.338 279.424 200.904C279.008 200.47 278.684 199.956 278.473 199.392C278.263 198.829 278.169 198.229 278.199 197.628C278.269 196.382 278.811 195.209 279.715 194.349C280.619 193.488 281.816 193.004 283.064 192.994C283.666 192.987 284.264 193.103 284.819 193.336C285.374 193.569 285.876 193.913 286.293 194.347C286.71 194.781 287.033 195.297 287.243 195.861C287.453 196.425 287.545 197.027 287.513 197.628Z" fill="#263238"/>
<path d="M242.347 276.004C242.273 277.249 241.73 278.419 240.827 279.279C239.924 280.139 238.728 280.624 237.481 280.638C236.88 280.643 236.284 280.525 235.73 280.291C235.175 280.058 234.675 279.714 234.258 279.28C233.842 278.846 233.518 278.332 233.307 277.768C233.097 277.205 233.003 276.605 233.033 276.004C233.103 274.758 233.645 273.585 234.549 272.725C235.453 271.864 236.65 271.38 237.898 271.37C238.5 271.365 239.096 271.483 239.65 271.716C240.204 271.95 240.705 272.294 241.122 272.728C241.538 273.162 241.862 273.676 242.072 274.239C242.283 274.803 242.377 275.403 242.347 276.004Z" fill="#263238"/>
<path d="M263.168 276.004C263.098 277.247 262.558 278.417 261.657 279.278C260.757 280.138 259.563 280.624 258.318 280.638C257.716 280.645 257.119 280.529 256.564 280.296C256.008 280.063 255.507 279.719 255.09 279.285C254.673 278.85 254.349 278.335 254.14 277.771C253.93 277.206 253.838 276.605 253.869 276.004C253.94 274.758 254.482 273.585 255.386 272.725C256.29 271.864 257.487 271.38 258.735 271.37C259.336 271.365 259.931 271.483 260.485 271.716C261.038 271.95 261.538 272.295 261.953 272.729C262.369 273.163 262.691 273.677 262.9 274.241C263.109 274.804 263.2 275.404 263.168 276.004Z" fill="#263238"/>
<path d="M284.053 276.004C283.983 277.25 283.441 278.422 282.537 279.283C281.633 280.144 280.436 280.628 279.188 280.638C278.587 280.641 277.992 280.521 277.439 280.287C276.885 280.053 276.386 279.708 275.97 279.275C275.553 278.842 275.23 278.328 275.018 277.766C274.807 277.204 274.712 276.604 274.739 276.004C274.813 274.759 275.356 273.589 276.259 272.729C277.162 271.869 278.358 271.383 279.605 271.37C280.207 271.363 280.804 271.479 281.359 271.712C281.914 271.945 282.416 272.289 282.833 272.723C283.25 273.158 283.573 273.673 283.783 274.237C283.993 274.801 284.085 275.403 284.053 276.004Z" fill="#263238"/>
<path d="M304.844 276.004C304.77 277.249 304.227 278.419 303.324 279.279C302.421 280.139 301.226 280.624 299.979 280.638C299.378 280.641 298.783 280.521 298.23 280.287C297.676 280.053 297.177 279.708 296.761 279.275C296.345 278.841 296.021 278.328 295.809 277.766C295.598 277.203 295.503 276.604 295.53 276.004C295.604 274.759 296.148 273.589 297.05 272.729C297.953 271.869 299.149 271.383 300.396 271.37C300.997 271.365 301.593 271.483 302.147 271.716C302.702 271.95 303.202 272.294 303.619 272.728C304.035 273.162 304.359 273.676 304.57 274.239C304.78 274.803 304.874 275.403 304.844 276.004Z" fill="#263238"/>
<path d="M325.76 276.004C325.686 277.249 325.143 278.419 324.24 279.279C323.337 280.139 322.141 280.624 320.894 280.638C320.292 280.645 319.695 280.529 319.14 280.296C318.585 280.063 318.083 279.719 317.666 279.285C317.249 278.85 316.926 278.335 316.716 277.771C316.506 277.206 316.414 276.605 316.446 276.004C316.516 274.758 317.058 273.585 317.962 272.725C318.866 271.864 320.063 271.38 321.311 271.37C321.913 271.365 322.509 271.483 323.063 271.716C323.617 271.95 324.118 272.294 324.535 272.728C324.951 273.162 325.275 273.676 325.485 274.239C325.696 274.803 325.79 275.403 325.76 276.004Z" fill="#263238"/>
<path d="M322.599 87.2371C329.064 80.9146 329.407 70.7804 323.365 64.6017C317.323 58.423 307.184 58.5396 300.718 64.8621C294.253 71.1847 293.91 81.3189 299.952 87.4976C305.994 93.6762 316.134 93.5597 322.599 87.2371Z" fill="#0056D2"/>
<path d="M342.041 112.546C338.193 117.589 333.24 121.682 327.563 124.512C321.886 127.342 315.637 128.835 309.294 128.874C303.143 128.926 297.074 127.464 291.621 124.617C286.169 121.769 281.501 117.624 278.029 112.546C285.536 105.07 297.415 100.189 310.576 100.189C323.737 100.189 335.198 105.07 342.041 112.546Z" fill="#0056D2"/>
<path opacity="0.1" d="M322.599 87.2371C329.064 80.9146 329.407 70.7804 323.365 64.6017C317.323 58.423 307.184 58.5396 300.718 64.8621C294.253 71.1847 293.91 81.3189 299.952 87.4976C305.994 93.6762 316.134 93.5597 322.599 87.2371Z" fill="white"/>
<path opacity="0.1" d="M342.041 112.546C338.193 117.589 333.24 121.682 327.563 124.512C321.886 127.342 315.637 128.835 309.294 128.874C303.143 128.926 297.074 127.464 291.621 124.617C286.169 121.769 281.501 117.624 278.029 112.546C285.536 105.07 297.415 100.189 310.576 100.189C323.737 100.189 335.198 105.07 342.041 112.546Z" fill="white"/>
<path d="M114.771 219.145C113.303 222.358 111.758 225.896 110.415 229.325C109.071 232.754 107.696 236.291 106.507 239.813C104.078 246.754 102.228 253.884 100.977 261.13L100.637 263.401C100.604 263.79 100.641 264.182 100.745 264.559C101.109 265.839 101.684 267.05 102.444 268.143C104.428 270.971 106.729 273.562 109.302 275.866C112.016 278.39 114.862 280.767 117.829 282.987C120.795 285.273 123.915 287.498 126.989 289.599L124.101 295.02C116.76 291.822 109.793 287.829 103.324 283.111C99.8732 280.594 96.7585 277.645 94.0563 274.337C92.4546 272.368 91.2056 270.136 90.3645 267.741C89.8755 266.245 89.6253 264.681 89.623 263.107C89.623 262.736 89.623 262.196 89.623 261.933V261.176L89.7775 259.632C90.6631 251.584 92.3553 243.645 94.8287 235.936C96.0335 232.136 97.3156 228.352 98.7831 224.66C100.251 220.968 101.764 217.353 103.633 213.6L114.771 219.145Z" fill="#E58A7B"/>
<path d="M124.811 288.642L135.732 283.112L132.905 295.099C132.905 295.099 125.413 297.199 121.938 293.554L124.811 288.642Z" fill="#E58A7B"/>
<path d="M145.727 285.074L142.823 294.99L132.906 295.099L135.733 283.112L145.727 285.074Z" fill="#E58A7B"/>
<path d="M161.142 161.312C161.726 163.453 162.539 165.525 163.567 167.491C163.267 167.832 162.88 168.085 162.448 168.223C162.016 168.362 161.554 168.381 161.111 168.279L161.142 161.312Z" fill="#DF5753"/>
<path d="M160.819 161.405C161.459 161.405 161.977 160.609 161.977 159.628C161.977 158.647 161.459 157.852 160.819 157.852C160.179 157.852 159.66 158.647 159.66 159.628C159.66 160.609 160.179 161.405 160.819 161.405Z" fill="#263238"/>
<path d="M160.479 157.914L162.826 157.25C162.826 157.25 161.683 159.073 160.479 157.914Z" fill="#263238"/>
<path d="M130.974 172.65C132.38 179.833 133.786 193.009 128.75 197.813C128.75 197.813 130.727 205.104 144.089 205.104C158.779 205.104 151.102 197.813 151.102 197.813C143.085 195.897 143.286 189.95 144.691 184.359L130.974 172.65Z" fill="#E58A7B"/>
<path d="M127.066 156.275C127.808 168.277 127.869 173.374 133.925 179.538C143.054 188.806 157.636 185.284 160.493 173.359C163.073 162.546 161.436 144.751 149.68 139.978C147.1 138.915 144.291 138.528 141.52 138.853C138.748 139.179 136.105 140.206 133.841 141.837C131.577 143.469 129.767 145.651 128.581 148.177C127.396 150.704 126.874 153.491 127.066 156.275Z" fill="#E58A7B"/>
<path d="M128.256 142.775C122.232 144.968 114.199 143.331 117.35 161.913C120.687 181.593 115.559 188.065 115.559 188.065C115.559 188.065 138.405 192.931 161.729 187.771C161.729 187.771 154.608 175.321 156.601 166.146C159.15 154.561 157.142 150.282 157.142 150.282C157.142 150.282 136.721 139.685 128.256 142.775Z" fill="#263238"/>
<path d="M153.744 162.532C153.75 164.814 154.404 167.047 155.629 168.973C157.266 171.475 159.197 170.518 159.676 167.861C160.108 165.528 159.784 161.404 157.699 159.797C155.613 158.191 153.775 159.767 153.744 162.532Z" fill="#E58A7B"/>
<path d="M123.018 144.799C121.288 139.934 129.537 132.442 146.992 135.531C164.447 138.621 165.204 153.156 165.204 153.156L161.682 148.955L161.837 153.372L143.903 156.817L123.018 144.799Z" fill="#263238"/>
<path d="M124.501 198.633C124.398 197.927 124.575 197.21 124.993 196.633C125.412 196.056 126.039 195.665 126.741 195.543C132.178 194.647 144.536 192.825 150.746 193.69C155.38 194.339 156.585 197.026 156.785 199.235C156.817 199.622 156.765 200.011 156.634 200.376C156.502 200.741 156.294 201.074 156.024 201.352C155.753 201.63 155.426 201.847 155.064 201.988C154.703 202.129 154.315 202.191 153.928 202.17L127.081 200.965C126.448 200.933 125.846 200.684 125.376 200.259C124.906 199.834 124.597 199.259 124.501 198.633Z" fill="#0056D2"/>
<path opacity="0.6" d="M124.501 198.633C124.398 197.927 124.575 197.21 124.993 196.633C125.412 196.056 126.039 195.665 126.741 195.543C132.178 194.647 144.536 192.825 150.746 193.69C155.38 194.339 156.585 197.026 156.785 199.235C156.817 199.622 156.765 200.011 156.634 200.376C156.502 200.741 156.294 201.074 156.024 201.352C155.753 201.63 155.426 201.847 155.064 201.988C154.703 202.129 154.315 202.191 153.928 202.17L127.081 200.965C126.448 200.933 125.846 200.684 125.376 200.259C124.906 199.834 124.597 199.259 124.501 198.633Z" fill="black"/>
<path d="M140.025 468.491L149.989 475.411L166.656 452.812L156.693 445.907L140.025 468.491Z" fill="#E58A7B"/>
<path d="M116.795 468.042L127.314 474.036L142.066 450.139L131.547 444.146L116.795 468.042Z" fill="#E58A7B"/>
<path d="M166.642 452.812L158.053 464.459L148.09 457.554L156.678 445.907L166.642 452.812Z" fill="#CF6F64"/>
<path d="M131.532 444.146L142.066 450.155L134.466 462.466L123.932 456.457L131.532 444.146Z" fill="#CF6F64"/>
<path d="M148.429 274.072C148.429 274.072 187.324 323.085 180.018 369.966C174.133 407.827 139.995 459.095 139.995 459.095L123.946 451.124C135.258 428.456 144.912 404.998 152.831 380.934C155.273 373.462 155.986 365.534 154.916 357.747C153.845 349.96 151.02 342.518 146.653 335.983C126.942 307.205 95.3688 324.336 116.608 274.072H148.429Z" fill="#0056D2"/>
<path opacity="0.6" d="M148.429 274.072C148.429 274.072 187.324 323.085 180.018 369.966C174.133 407.827 139.995 459.095 139.995 459.095L123.946 451.124C135.258 428.456 144.912 404.998 152.831 380.934C155.273 373.462 155.986 365.534 154.916 357.747C153.845 349.96 151.02 342.518 146.653 335.983C126.942 307.205 95.3688 324.336 116.608 274.072H148.429Z" fill="black"/>
<path opacity="0.4" d="M167.507 305.555L161.854 299.932C161.854 300.38 172.805 367.992 175.879 386.991C177.693 381.441 179.082 375.761 180.035 370C183.649 346.999 176.096 323.504 167.507 305.555Z" fill="black"/>
<path d="M165.792 274.072C165.792 274.072 212.627 335.674 213.956 372.608C215.052 403.501 162.981 463.358 162.981 463.358L147.843 453.565C147.843 453.565 178.32 411.055 185.997 376.33C183.031 341.915 120.316 274.072 120.316 274.072H165.792Z" fill="#0056D2"/>
<path opacity="0.6" d="M165.792 274.072C165.792 274.072 212.627 335.674 213.956 372.608C215.052 403.501 162.981 463.358 162.981 463.358L147.843 453.565C147.843 453.565 178.32 411.055 185.997 376.33C183.031 341.915 120.316 274.072 120.316 274.072H165.792Z" fill="black"/>
<path d="M107.85 200.563C102.845 201.752 98.041 219.948 98.041 219.948L117.612 233.017C117.612 233.017 124.131 218.62 121.845 212.318C119.481 205.753 114.137 199.064 107.85 200.563Z" fill="#0056D2"/>
<path opacity="0.2" d="M111.682 212.287L110.322 228.151L117.598 233.032C119.607 228.509 121.094 223.773 122.031 218.913L111.682 212.287Z" fill="black"/>
<path d="M171.584 200.918C171.584 200.918 177.361 202.941 165.791 274.059H116.577C117.411 253.978 117.427 241.62 107.85 200.562C114.741 199.142 121.725 198.223 128.749 197.813C136.19 197.279 143.66 197.279 151.101 197.813C160.709 198.693 171.584 200.918 171.584 200.918Z" fill="#0056D2"/>
<path d="M176.59 212.288C177.702 215.377 178.876 218.698 180.112 221.896C181.347 225.093 182.521 228.383 183.772 231.627L187.557 241.328L188.515 243.753L189.009 244.958L189.241 245.56C189.241 245.668 189.241 245.668 189.241 245.653C188.958 245.255 188.588 244.927 188.159 244.695C187.548 244.336 186.859 244.129 186.151 244.093C185.563 244.075 184.978 244.185 184.437 244.417C183.726 244.742 183.726 244.881 183.742 244.865C183.87 244.762 183.984 244.643 184.081 244.51C184.936 243.387 185.676 242.181 186.29 240.911C187.016 239.49 187.711 237.976 188.406 236.447C189.766 233.357 191.017 230.16 192.268 226.931C193.519 223.703 194.709 220.444 195.867 217.153L199.389 207.298L205.336 208.843C204.162 215.887 202.649 222.745 200.826 229.727C199.945 233.203 198.91 236.647 197.736 240.123C197.149 241.869 196.501 243.599 195.759 245.375C194.986 247.303 194.035 249.154 192.917 250.905C192.506 251.494 192.052 252.052 191.558 252.573C190.769 253.425 189.811 254.104 188.746 254.566C187.801 254.972 186.777 255.162 185.75 255.122C184.598 255.079 183.477 254.744 182.49 254.149C181.327 253.423 180.361 252.42 179.679 251.229C179.447 250.828 179.246 250.426 179.107 250.133L178.814 249.546L178.227 248.341L177.053 245.946C175.508 242.734 173.964 239.49 172.62 236.23C171.276 232.971 169.855 229.665 168.526 226.344C167.198 223.023 166.008 219.702 164.881 216.119L176.59 212.288Z" fill="#E58A7B"/>
<path d="M171.584 200.919C177.5 202.325 184.158 219.811 184.158 219.811L166.564 234.779C166.564 234.779 155.179 215.717 157.481 209.43C159.875 202.881 163.861 199.081 171.584 200.919Z" fill="#0056D2"/>
<path d="M202.184 201.768L208.363 196.609L212.657 203.297L209.49 208.873C209.49 208.873 204.455 213.508 200.006 211.144C199.3 209.557 199.13 207.783 199.524 206.091C199.917 204.399 200.851 202.881 202.184 201.768Z" fill="#E58A7B"/>
<path d="M219.515 196.624L219.052 198.308L209.274 199.945L208.316 196.609L219.515 196.624Z" fill="#E58A7B"/>
<path d="M164.185 464.15L146.545 452.75L149.712 447.251L169.53 459.439L164.185 464.15Z" fill="#0056D2"/>
<path d="M134.218 473.232C132.671 473.043 131.184 472.516 129.862 471.688C129.808 471.669 129.761 471.633 129.727 471.586C129.694 471.539 129.676 471.483 129.676 471.425C129.676 471.367 129.694 471.311 129.727 471.264C129.761 471.217 129.808 471.181 129.862 471.162C130.341 471.008 134.497 469.726 135.701 470.714C135.837 470.827 135.94 470.974 135.999 471.139C136.059 471.305 136.074 471.484 136.041 471.657C136.02 471.935 135.928 472.203 135.774 472.435C135.619 472.668 135.408 472.857 135.161 472.985C134.871 473.143 134.548 473.228 134.218 473.232ZM130.743 471.533C132.674 472.522 134.218 472.877 134.96 472.506C135.121 472.417 135.257 472.287 135.355 472.131C135.452 471.974 135.507 471.795 135.516 471.61C135.516 471.363 135.516 471.255 135.377 471.193C134.728 470.668 132.411 471.07 130.712 471.533H130.743Z" fill="#263238"/>
<path d="M129.97 471.794C129.889 471.793 129.811 471.76 129.754 471.702C129.731 471.659 129.719 471.611 129.719 471.563C129.719 471.514 129.731 471.466 129.754 471.424C129.754 471.285 130.758 467.933 132.333 467.176C132.535 467.084 132.753 467.037 132.974 467.037C133.196 467.037 133.414 467.084 133.616 467.176C133.832 467.244 134.02 467.383 134.149 467.571C134.278 467.759 134.34 467.984 134.326 468.211C134.218 469.601 131.391 471.516 130.094 471.841L129.97 471.794ZM132.967 467.577C132.816 467.582 132.669 467.619 132.534 467.686C131.577 468.149 130.789 469.956 130.403 471.053C131.762 470.481 133.631 468.968 133.693 468.118C133.693 467.979 133.693 467.809 133.337 467.655C133.222 467.593 133.096 467.551 132.967 467.531V467.577Z" fill="#263238"/>
<path d="M156.26 479.905C154.515 479.905 152.09 477.665 150.761 476.291C150.727 476.243 150.709 476.187 150.709 476.128C150.709 476.07 150.727 476.014 150.761 475.966C150.792 475.917 150.835 475.876 150.887 475.849C150.938 475.822 150.996 475.809 151.055 475.812C151.673 475.812 157.033 476.615 157.79 478.129C157.87 478.265 157.912 478.419 157.912 478.577C157.912 478.734 157.87 478.889 157.79 479.025C157.676 479.261 157.504 479.464 157.291 479.615C157.078 479.766 156.829 479.861 156.569 479.89L156.26 479.905ZM151.781 476.507C153.727 478.391 155.442 479.442 156.415 479.318C156.585 479.296 156.748 479.232 156.888 479.133C157.028 479.033 157.141 478.9 157.218 478.747C157.253 478.694 157.271 478.632 157.271 478.569C157.271 478.506 157.253 478.444 157.218 478.391C156.816 477.557 153.959 476.847 151.781 476.507Z" fill="#263238"/>
<path d="M151.952 476.43C151.606 476.44 151.259 476.414 150.917 476.353C150.87 476.346 150.825 476.326 150.787 476.296C150.749 476.267 150.719 476.228 150.701 476.183C150.678 476.137 150.666 476.087 150.666 476.036C150.666 475.985 150.678 475.935 150.701 475.889C150.794 475.781 152.879 473.263 154.856 473.093C155.416 473.05 155.971 473.227 156.401 473.588C157.003 474.113 156.973 474.576 156.818 474.87C156.432 475.92 153.76 476.43 151.952 476.43ZM151.551 475.859C153.281 475.951 156.046 475.38 156.401 474.623C156.401 474.623 156.525 474.376 156.123 474.036C155.963 473.897 155.776 473.792 155.575 473.728C155.373 473.665 155.16 473.643 154.949 473.665C153.617 474.037 152.431 474.808 151.551 475.874V475.859Z" fill="#263238"/>
<path d="M130.388 470.128L117.289 466.42C117.063 466.352 116.82 466.369 116.606 466.469C116.392 466.569 116.223 466.744 116.13 466.961L111.712 476.893C111.609 477.148 111.56 477.421 111.57 477.696C111.579 477.97 111.647 478.24 111.768 478.486C111.889 478.733 112.061 478.951 112.272 479.126C112.484 479.302 112.73 479.43 112.995 479.504C117.629 480.709 119.853 481.049 125.615 482.701C129.167 483.69 134.234 485.528 139.131 486.918C144.027 488.309 145.665 483.535 143.765 482.516C135.176 477.975 134.497 474.793 132.149 471.394C131.728 470.779 131.105 470.331 130.388 470.128Z" fill="#0056D2"/>
<path d="M151.117 474.483L139.934 466.76C139.744 466.622 139.51 466.558 139.277 466.581C139.044 466.603 138.827 466.711 138.667 466.883L131.253 474.854C131.072 475.06 130.937 475.302 130.857 475.564C130.777 475.826 130.754 476.102 130.789 476.374C130.824 476.646 130.917 476.907 131.061 477.14C131.205 477.374 131.396 477.574 131.623 477.727C135.562 480.368 137.601 481.434 142.529 484.848C145.618 486.949 151.596 491.614 155.767 494.518C159.938 497.422 163.042 493.437 161.559 491.861C154.917 484.771 153.465 480.322 152.369 476.29C152.178 475.559 151.735 474.919 151.117 474.483Z" fill="#0056D2"/>
<path d="M142.051 460.116L121.893 450.091L123.978 444.622L145.511 455.188L142.051 460.116Z" fill="#0056D2"/>
<path d="M115.836 271.171L114.137 275.62C113.967 275.96 114.369 276.315 114.94 276.315H166.039C166.487 276.315 166.857 276.099 166.888 275.821L167.321 271.403C167.321 271.11 166.965 270.847 166.487 270.847H116.639C116.489 270.833 116.338 270.855 116.198 270.911C116.059 270.968 115.934 271.057 115.836 271.171Z" fill="#0056D2"/>
<path opacity="0.4" d="M115.836 271.171L114.137 275.62C113.967 275.96 114.369 276.315 114.94 276.315H166.039C166.487 276.315 166.857 276.099 166.888 275.821L167.321 271.403C167.321 271.11 166.965 270.847 166.487 270.847H116.639C116.489 270.833 116.338 270.855 116.198 270.911C116.059 270.968 115.934 271.057 115.836 271.171Z" fill="white"/>
<path d="M123.884 276.748H122.541C122.278 276.748 122.077 276.609 122.093 276.439L122.726 270.708C122.726 270.553 122.973 270.414 123.236 270.414H124.58C124.842 270.414 125.043 270.553 125.028 270.708L124.394 276.439C124.379 276.609 124.147 276.748 123.884 276.748Z" fill="#0056D2"/>
<path d="M155.396 276.748H154.068C153.805 276.748 153.605 276.609 153.62 276.439L154.238 270.708C154.238 270.553 154.5 270.414 154.763 270.414H156.091C156.354 270.414 156.57 270.553 156.539 270.708L155.922 276.439C155.844 276.609 155.674 276.748 155.396 276.748Z" fill="#0056D2"/>
<g style="mix-blend-mode:multiply">
<path d="M122.71 538.341C145.565 538.341 164.093 536.999 164.093 535.344C164.093 533.689 145.565 532.348 122.71 532.348C99.8556 532.348 81.3281 533.689 81.3281 535.344C81.3281 536.999 99.8556 538.341 122.71 538.341Z" fill="#F5F5F5"/>
</g>
<path d="M147.92 531.111C140.599 528.979 132.473 526.245 127.561 523.387C127.422 523.294 127.268 523.248 127.129 523.171V490.022H141.942C143.067 489.955 144.124 489.462 144.896 488.642C145.669 487.822 146.099 486.738 146.099 485.612C146.099 484.485 145.669 483.401 144.896 482.582C144.124 481.762 143.067 481.268 141.942 481.202H127.206V330.1H118.309V481.202H103.588C102.987 481.166 102.385 481.254 101.819 481.459C101.253 481.665 100.735 481.984 100.297 482.397C99.8583 482.81 99.5092 483.308 99.2706 483.861C99.0319 484.414 98.9088 485.01 98.9088 485.612C98.9088 486.214 99.0319 486.81 99.2706 487.362C99.5092 487.915 99.8583 488.414 100.297 488.827C100.735 489.24 101.253 489.559 101.819 489.764C102.385 489.97 102.987 490.057 103.588 490.022H118.309V523.124C118.17 523.124 118.031 523.248 117.892 523.341C112.902 526.245 104.839 528.979 97.5171 531.064C97.0225 531.214 96.5978 531.535 96.3199 531.971C96.042 532.407 95.9292 532.927 96.0021 533.439C96.0749 533.951 96.3284 534.419 96.7169 534.76C97.1053 535.101 97.6029 535.291 98.1196 535.297H147.318C147.812 535.263 148.279 535.061 148.642 534.724C149.005 534.388 149.241 533.937 149.311 533.447C149.382 532.957 149.282 532.458 149.029 532.033C148.776 531.608 148.385 531.282 147.92 531.111Z" fill="#E0E0E0"/>
<path d="M150.19 314.715H95.2613C90.8422 314.715 87.2598 318.298 87.2598 322.717V339.044C87.2598 343.463 90.8422 347.046 95.2613 347.046H150.19C154.61 347.046 158.192 343.463 158.192 339.044V322.717C158.192 318.298 154.61 314.715 150.19 314.715Z" fill="#0056D2"/>
<path d="M94.752 347.062V349.873C94.752 352.19 97.2698 354.075 100.359 354.075H145.155C148.245 354.075 150.762 352.19 150.762 349.873V347.062H94.752Z" fill="#0056D2"/>
<path opacity="0.3" d="M94.752 347.062V349.873C94.752 352.19 97.2698 354.075 100.359 354.075H145.155C148.245 354.075 150.762 352.19 150.762 349.873V347.062H94.752Z" fill="white"/>
</svg>
