<svg width="19" height="18" viewBox="0 0 19 18" fill="none" xmlns="http://www.w3.org/2000/svg">
<path d="M5.81914 16.9966H5.73914C4.1275 16.9825 2.53917 16.6102 1.08914 15.9066C0.822416 15.7813 0.602801 15.5739 0.462447 15.3148C0.322092 15.0557 0.268369 14.7585 0.309143 14.4666C0.353487 14.1728 0.48953 13.9005 0.697849 13.6886C0.906168 13.4766 1.17611 13.336 1.46914 13.2866C2.36775 13.1667 3.23223 12.8638 4.00914 12.3966C2.6603 11.342 1.62189 9.94218 1.00396 8.34541C0.386029 6.74864 0.211594 5.01445 0.499143 3.3266C0.538131 3.05926 0.653107 2.80874 0.830391 2.60486C1.00767 2.40099 1.2398 2.25234 1.49914 2.1766C1.75146 2.09736 2.02149 2.09398 2.27571 2.16686C2.52993 2.23975 2.75715 2.38571 2.92914 2.5866C3.51314 3.35239 4.24704 3.99116 5.08605 4.46397C5.92506 4.93677 6.8516 5.23369 7.80914 5.3366C7.85488 4.15846 8.36118 3.04532 9.21914 2.2366C9.64754 1.82638 10.1533 1.50551 10.707 1.29271C11.2606 1.07991 11.8511 0.979421 12.4439 0.997104C13.0368 1.01479 13.6203 1.15029 14.1602 1.39571C14.7002 1.64114 15.186 1.99157 15.5891 2.4266C15.6942 2.51947 15.8247 2.57865 15.9638 2.59648C16.1028 2.61431 16.2441 2.58997 16.3691 2.5266C16.6076 2.41415 16.8731 2.37182 17.1347 2.40455C17.3962 2.43728 17.6431 2.54372 17.8465 2.71145C18.0499 2.87918 18.2013 3.10129 18.2833 3.35186C18.3652 3.60243 18.3742 3.87113 18.3091 4.1266C18.0785 5.07672 17.6415 5.9644 17.0291 6.7266C16.8942 9.57135 15.64 12.2474 13.5401 14.1712C11.4402 16.0951 8.66481 17.1107 5.81914 16.9966ZM5.81914 14.9966H5.89914C7.06181 15.0366 8.22085 14.8454 9.30907 14.4341C10.3973 14.0228 11.393 13.3995 12.2386 12.6005C13.0841 11.8015 13.7626 10.8425 14.2348 9.77929C14.707 8.71606 14.9634 7.56967 14.9891 6.4066C15.0057 6.08785 15.1371 5.78589 15.3591 5.5566C15.603 5.24785 15.8111 4.91236 15.9791 4.5566C15.6189 4.55729 15.2626 4.48193 14.9334 4.33546C14.6043 4.18899 14.3098 3.9747 14.0691 3.7066C13.8377 3.47716 13.5629 3.29618 13.2607 3.17427C12.9585 3.05235 12.635 2.99195 12.3091 2.9966C11.98 2.98809 11.6525 3.04467 11.3453 3.16308C11.0381 3.28149 10.7574 3.4594 10.5191 3.6866C10.1977 3.9916 9.96205 4.37567 9.83569 4.80037C9.70933 5.22507 9.69673 5.6755 9.79914 6.1066L10.0591 7.2466L8.88914 7.3266C7.69024 7.42437 6.48441 7.26037 5.35516 6.84596C4.22591 6.43156 3.20023 5.77666 2.34914 4.9266C2.31264 6.243 2.64194 7.54373 3.30044 8.68418C3.95893 9.82462 4.92081 10.7601 6.07914 11.3866L7.02914 11.9266L6.39914 12.8266C5.71783 13.7201 4.78433 14.3889 3.71914 14.7466C4.40246 14.9179 5.10471 15.0019 5.80914 14.9966H5.81914Z" fill="white"/>
</svg>
